<svg width="107px" height="64px" viewBox="0 0 287 244" version="1.1" xmlns="http://www.w3.org/2000/svg" xmlns:xlink="http://www.w3.org/1999/xlink">
    <!-- Generator: Sketch 40.1 (33804) - http://www.bohemiancoding.com/sketch -->
    <defs></defs>
    <g id="White-Logo-Icon" stroke="none" stroke-width="1" fill="none" fill-rule="evenodd">
        <g id="Fill-95" fill="#50BDC7">
            <g id="Page-2">
                <g>
                    <g id="Group">
                        <path d="M264.924399,211.341098 C264.924399,216.769812 260.519589,221.182794 255.100928,221.182794 L231.810997,221.182794 C208.549706,221.182794 186.107514,216.402542 165.601377,207.473283 C184.744257,193.499796 201.361102,175.75605 214.426604,154.821643 C214.443788,154.792951 214.455244,154.75278 214.472428,154.718349 C214.529707,154.63227 214.592715,154.557668 214.644267,154.46585 C218.44764,147.826292 220.458158,140.245604 220.458158,132.555882 C220.458158,108.24718 200.719569,88.47197 176.461611,88.47197 C163.333101,88.47197 151.567847,94.2909086 143.497136,103.45545 C135.432153,94.2909086 123.661172,88.47197 110.538389,88.47197 C86.2747033,88.47197 66.536114,108.24718 66.536114,132.555882 C66.536114,140.216911 68.5351762,147.768906 72.3099093,154.391249 C72.367189,154.494543 72.4416525,154.580622 72.4989322,154.678178 C72.5161162,154.706871 72.527572,154.735564 72.5447559,154.764257 C85.6102584,175.721618 102.238559,193.48258 121.398623,207.473283 C100.892486,216.402542 78.4445665,221.182794 55.1947312,221.182794 L31.899072,221.182794 C26.4804112,221.182794 22.0756012,216.769812 22.0756012,211.341098 L22.0756012,110.714777 C22.0756012,107.420822 23.713801,104.362149 26.4517711,102.531536 L143.502864,24.3546112 L181.530865,49.7536473 C184.916096,52.014655 189.269354,52.226983 192.860792,50.3045528 C196.45223,48.3763837 198.691867,44.6290788 198.691867,40.5546741 L198.691867,24.9973342 C198.691867,23.4077424 199.980661,22.1222964 201.561581,22.1222964 L217.903483,22.1222964 C219.484403,22.1222964 220.767468,23.4077424 220.767468,24.9973342 L220.767468,70.0453308 C220.767468,73.7409881 222.611875,77.1898858 225.687796,79.244304 L260.548229,102.531536 C263.291927,104.362149 264.924399,107.420822 264.924399,110.714777 L264.924399,211.341098 L264.924399,211.341098 L264.924399,211.341098 Z M91.3897815,143.229675 C89.5797427,139.993105 88.6117153,136.303187 88.6117153,132.555882 C88.6117153,120.447439 98.4466421,110.594266 110.538389,110.594266 C122.624409,110.594266 132.459335,120.447439 132.459335,132.555882 C132.459335,138.661751 137.402575,143.614161 143.497136,143.614161 C149.591697,143.614161 154.534937,138.661751 154.534937,132.555882 C154.534937,120.447439 164.369863,110.594266 176.461611,110.594266 C188.54763,110.594266 198.382557,120.447439 198.382557,132.555882 C198.382557,136.326141 197.408802,140.021798 195.581579,143.275584 C182.046383,164.915838 164.192296,182.688277 143.497136,195.766542 C122.796248,182.682538 104.930706,164.892883 91.3897815,143.229675 L91.3897815,143.229675 L91.3897815,143.229675 Z M272.794631,84.1278509 L242.848798,64.1230974 L242.848798,24.9973342 C242.848798,11.2132211 231.656342,0 217.903483,0 L201.561581,0 C189.441193,0 179.31414,8.70545362 177.074504,20.199866 L153.48099,4.43593647 C147.420796,0.384486087 139.584932,0.390224685 133.51901,4.43593647 L14.2053686,84.1278509 C5.30982941,90.0673001 0,100.006553 0,110.714777 L0,211.341098 C0,228.964333 14.3084721,243.299352 31.899072,243.299352 L55.1947312,243.299352 C86.6642053,243.299352 116.827702,235.580937 143.497136,221.343475 C170.172298,235.580937 200.330067,243.299352 231.810997,243.299352 L255.100928,243.299352 C272.691528,243.299352 287,228.964333 287,211.341098 L287,110.714777 C287,100.006553 281.690172,90.0673001 272.794631,84.1278509 L272.794631,84.1278509 L272.794631,84.1278509 Z" id="Fill-95"></path>
                    </g>
                </g>
            </g>
        </g>
    </g>
</svg>