<?xml version="1.0" encoding="utf-8"?>
<!-- Generator: Adobe Illustrator 22.1.0, SVG Export Plug-In . SVG Version: 6.00 Build 0)  -->
<svg version="1.1" id="Layer_1" xmlns="http://www.w3.org/2000/svg" xmlns:xlink="http://www.w3.org/1999/xlink" x="0px" y="0px"
	 width="363.2px" height="66.5px" viewBox="-10 -10 383.2 86.5" style="enable-background:new 0 0 363.2 66.5;" xml:space="preserve">
<style type="text/css">
	.st0{fill:#007ABF;}
</style>
<g>
	<rect x="50.4" y="40.4" class="st0" width="17.7" height="26.1"/>
	<polygon class="st0" points="68.1,26 68.1,0 49.3,0 34,25.7 18.8,0 0,0 0,66.5 17.5,66.5 17.5,28.5 33.7,54.3 34.1,54.3 50.2,28.7 
		50.2,26 	"/>
	<polygon class="st0" points="99.9,40.3 130.7,40.3 130.7,25.7 99.9,25.7 99.9,15.7 133.9,15.7 133.9,0 82.4,0 82.4,26 99.7,26 
		99.7,40.4 82.4,40.4 82.4,66.5 134.3,66.5 134.3,50.8 99.9,50.8 	"/>
	<path class="st0" d="M194.8,9.2c-3.1-2.9-6.9-5.2-11.3-6.8C179,0.8,173.9,0,168.2,0h-24.7v66.5h24.3c5.7,0,10.9-0.8,15.4-2.5
		c4.5-1.7,8.4-4,11.5-7s5.5-6.5,7.1-10.6s2.5-8.5,2.5-13.3v-0.2c0-4.8-0.8-9.2-2.4-13.2C200.3,15.6,197.9,12.1,194.8,9.2
		 M186.2,33.3c0,5.4-1.6,9.5-4.9,12.4s-7.5,4.4-12.9,4.4h-7.3V16.3h7.3c5.3,0,9.6,1.5,12.9,4.4c3.2,2.9,4.9,7.1,4.9,12.4V33.3z"/>
	<polygon class="st0" points="213.5,66.5 231.2,66.5 231.2,42.7 261.5,42.7 261.5,27.3 231.2,27.3 231.2,16.1 264.7,16.1 264.7,0 
		213.5,0 	"/>
	<rect x="273.1" class="st0" width="17.8" height="66.5"/>
	<polygon class="st0" points="345.7,0 345.7,35.1 319.3,0 302.7,0 302.7,66.5 320.1,66.5 320.1,30 347.6,66.5 363.2,66.5 363.2,0 	
		"/>
</g>
</svg>
