<?xml version="1.0" encoding="utf-8"?>
<!-- Generator: Adobe Illustrator 21.1.0, SVG Export Plug-In . SVG Version: 6.00 Build 0)  -->
<svg version="1.1" id="Layer_1" xmlns="http://www.w3.org/2000/svg" xmlns:xlink="http://www.w3.org/1999/xlink" x="0px" y="0px"
	 viewBox="0 0 66 82.5" style="enable-background:new 0 0 66 82.5;" xml:space="preserve">
<style type="text/css">
	.st0{fill:#FFFFFF;}
	.st1{fill:#F99D1C;}
</style>
<g>
	<polygon class="st0" points="35.9,33 30.3,33 27.2,27.7 25.8,28.5 29.3,34.6 36.8,34.6 40.4,28.5 38.9,27.7 	"/>
	<polygon class="st0" points="27.5,24.3 29.1,24.3 29.1,23.1 30.3,23.1 30.3,21.4 29.1,21.4 29.1,20.2 27.5,20.2 27.5,21.4 
		26.2,21.4 26.2,23.1 27.5,23.1 	"/>
	<polygon class="st0" points="37.1,24.3 38.7,24.3 38.7,23.1 39.9,23.1 39.9,21.4 38.7,21.4 38.7,20.2 37.1,20.2 37.1,21.4 
		35.8,21.4 35.8,23.1 37.1,23.1 	"/>
	<path class="st1" d="M51.3,42.2c-2.2,0-3.9,1.8-3.9,3.9v0.5h-2.6v-1.5c0-1.6-1.3-2.9-2.9-2.9h-5.6V39h11c2.1,0,3.7-1.7,3.7-3.7
		V18.5c0-2.1-1.7-3.7-3.7-3.7H33.9v-2.6c1.4-0.4,2.5-1.6,2.5-3.2c0-1.8-1.5-3.3-3.3-3.3S29.8,7.2,29.8,9c0,1.5,1,2.8,2.5,3.2v2.6
		H18.8c-2.1,0-3.7,1.7-3.7,3.7v16.8c0,2.1,1.7,3.7,3.7,3.7h11v3.2h-5.6c-1.6,0-2.9,1.3-2.9,2.9v1.5h-2.7v-0.5c0-2.2-1.8-3.9-3.9-3.9
		s-3.9,1.8-3.9,3.9v16.8c0,2.2,1.8,3.9,3.9,3.9c2.2,0,3.9-1.8,3.9-3.9V52.7h2.7v10c0,1.6,1.3,2.9,2.9,2.9h0.4
		c-0.2,0.8-0.3,1.5-0.3,2.4c0,4.8,3.9,8.7,8.7,8.7c4.8,0,8.7-3.9,8.7-8.7c0-0.8-0.1-1.6-0.3-2.4h0.4c1.6,0,2.9-1.3,2.9-2.9v-10h2.6
		v10.2c0,2.2,1.8,3.9,3.9,3.9c2.2,0,3.9-1.8,3.9-3.9V46.1C55.2,44,53.4,42.2,51.3,42.2z M31.4,9c0-0.9,0.7-1.6,1.6-1.6
		c0.9,0,1.6,0.7,1.6,1.6s-0.7,1.6-1.6,1.6C32.2,10.7,31.4,9.9,31.4,9z M14.7,65.2c-1.3,0-2.3-1-2.3-2.3V46.1c0-1.3,1-2.3,2.3-2.3
		c1.3,0,2.3,1,2.3,2.3v14.6h-1.5v-1.6h-1.6v3.2H17v0.5C17,64.2,16,65.2,14.7,65.2z M18.6,51.1v-2.8h2.7v2.8H18.6z M16.8,35.3V18.5
		c0-1.2,0.9-2.1,2.1-2.1h28.5c1.2,0,2.1,0.9,2.1,2.1v16.8c0,1.2-0.9,2.1-2.1,2.1H18.8C17.7,37.4,16.8,36.5,16.8,35.3z M31.5,39h3.2
		v3.2h-3.2V39z M33.1,75.1c-3.9,0-7.1-3.2-7.1-7.1c0-3.9,3.2-7.1,7.1-7.1c3.9,0,7.1,3.2,7.1,7.1C40.2,71.9,37,75.1,33.1,75.1z
		 M43.2,62.7c0,0.7-0.6,1.3-1.3,1.3h-1c-1.5-2.8-4.4-4.8-7.8-4.8s-6.3,1.9-7.8,4.8h-1c-0.7,0-1.3-0.6-1.3-1.3V45.1
		c0-0.7,0.6-1.3,1.3-1.3h17.6c0.7,0,1.3,0.6,1.3,1.3V62.7z M44.8,51.1v-2.8h2.6v2.8H44.8z M53.5,62.9c0,1.3-1,2.3-2.3,2.3
		c-1.3,0-2.3-1-2.3-2.3v-0.5h3.1v-3.2h-1.6v1.6H49V46.1c0-1.3,1-2.3,2.3-2.3c1.3,0,2.3,1,2.3,2.3V62.9z"/>
	<path class="st1" d="M33.1,63.9c-2.3,0-4.1,1.9-4.1,4.1c0,2.3,1.9,4.1,4.1,4.1c2.3,0,4.1-1.9,4.1-4.1
		C37.2,65.7,35.4,63.9,33.1,63.9z M33.1,70.5c-1.4,0-2.5-1.1-2.5-2.5c0-1.4,1.1-2.5,2.5-2.5s2.5,1.1,2.5,2.5
		C35.6,69.4,34.5,70.5,33.1,70.5z"/>
</g>
</svg>
