<?xml version="1.0" encoding="utf-8"?>
<!-- Generator: Adobe Illustrator 21.1.0, SVG Export Plug-In . SVG Version: 6.00 Build 0)  -->
<svg version="1.1" id="Layer_1" xmlns="http://www.w3.org/2000/svg" xmlns:xlink="http://www.w3.org/1999/xlink" x="0px" y="0px"
	 viewBox="0 0 66 82.5" style="enable-background:new 0 0 66 82.5;" xml:space="preserve">
<style type="text/css">
	.st0{fill:#F99D1C;}
	.st1{fill:#FFFFFF;}
</style>
<g>
	<g>
		<path class="st0" d="M11.4,68.7c-1.8,0-3.3,1.5-3.3,3.3v2.3c0,1.8,1.5,3.3,3.3,3.3H54c1.8,0,3.3-1.5,3.3-3.3v-2.3
			c0-1.8-1.5-3.3-3.3-3.3h-0.9l-5.5-7.3C54,57.5,58,50.6,58,43c0-11.9-9.6-21.5-21.5-21.5c-0.8,0-1.8,0.1-2.6,0.1
			c-0.8-0.6-1.7-1-2.7-1.1c-0.4-1.1-1.5-1.8-2.7-1.8h-1v-8.4h0.9c0.4,0,0.8-0.4,0.8-0.8V5.6c0-0.4-0.4-0.8-0.8-0.8h-7.5
			c-0.4,0-0.8,0.4-0.8,0.8v3.9c0,0.4,0.4,0.8,0.8,0.8h0.9v8.4h-1c-1.6,0-2.9,1.3-2.9,2.9v16c0,1.4,1,2.6,2.3,2.8V44
			c0,0.4,0.4,0.8,0.8,0.8h7.5c0.4,0,0.8-0.4,0.8-0.8v-3.5c1.3-0.3,2.3-1.5,2.3-2.8v-6.3c1.5-0.2,2.8-1,3.6-2.2
			c0.6-0.1,1.1-0.1,1.5-0.1c7.7,0,14,6.3,14,14c0,5.2-2.9,10-7.4,12.4c-1-1.2-2.4-1.8-4-1.8c-0.2,0-0.4,0-0.6,0c-0.1,0-0.2,0-0.3,0
			H13.5c-0.8,0-1.6,0.3-2.2,0.9c-0.6,0.6-0.9,1.4-0.9,2.2c0,1.7,1.4,3.1,3.1,3.1h18.2L25,68.7L11.4,68.7L11.4,68.7z M21.6,8.7V6.4
			h5.9v2.2h0L21.6,8.7L21.6,8.7L21.6,8.7z M25.8,10.3v8.4h-2.6v-8.4H25.8z M55.7,72.1v2.3c0,0.9-0.8,1.7-1.7,1.7H11.4
			c-0.9,0-1.7-0.8-1.7-1.7v-2.3c0-0.9,0.8-1.7,1.7-1.7h14.1h27.3h0H54C54.9,70.4,55.7,71.1,55.7,72.1z M21.6,43.2v-2.7h5.9v2.7H21.6
			z M28.5,38.9h-0.2c0,0,0,0,0,0h-7.5c0,0,0,0,0,0h-0.2c-0.7,0-1.3-0.6-1.3-1.3v-16c0-0.7,0.6-1.3,1.3-1.3h7.9
			c0.3,0,0.6,0.1,0.8,0.3c-2.4,0.6-4.2,2.7-4.2,5.3c0,2.7,2,5,4.6,5.4v6.3C29.8,38.4,29.2,38.9,28.5,38.9z M30.6,29.8
			C30.6,29.8,30.6,29.8,30.6,29.8C30.6,29.8,30.6,29.8,30.6,29.8c-2.1,0-3.8-1.7-3.8-3.8c0-2.1,1.7-3.8,3.8-3.8s3.8,1.7,3.8,3.8
			C34.4,28,32.7,29.8,30.6,29.8z M52.1,43c0-8.6-7-15.6-15.6-15.6c-0.2,0-0.4,0-0.7,0c0.1-0.5,0.2-1,0.2-1.5c0-1-0.3-1.9-0.8-2.8
			c0.4,0,0.9,0,1.2,0c11,0,19.9,8.9,19.9,19.9c0,7-3.7,13.5-9.7,17.1l-2.6-3.4C49,54,52.1,48.7,52.1,43z M13.5,58.2
			c-0.8,0-1.5-0.7-1.5-1.5c0-0.4,0.2-0.8,0.4-1.1c0.3-0.3,0.7-0.4,1.1-0.4h21.7c-0.1,0.2-0.3,0.3-0.4,0.5L33,58.2L13.5,58.2
			L13.5,58.2z M36.1,56.7c0.7-0.9,1.8-1.5,2.9-1.5c1.2,0,2.2,0.5,2.9,1.5l9.1,12.1h-24L36.1,56.7z"/>
		<circle class="st1" cx="39.1" cy="59" r="2"/>
	</g>
</g>
</svg>
