<?xml version="1.0" encoding="utf-8"?>
<!-- Generator: Adobe Illustrator 21.1.0, SVG Export Plug-In . SVG Version: 6.00 Build 0)  -->
<svg version="1.1" id="Layer_1" xmlns="http://www.w3.org/2000/svg" xmlns:xlink="http://www.w3.org/1999/xlink" x="0px" y="0px"
	 viewBox="0 0 66 82.5" style="enable-background:new 0 0 66 82.5;" xml:space="preserve">
<style type="text/css">
	.st0{fill:#0A72BA;}
	.st1{fill:#F99E1E;}
</style>
<g>
	<g>
		<path class="st0" d="M33.2,56c0,0-0.1,0-0.1,0c-1.7,0-3.4-0.8-4.7-2.1c-1.3-1.3-2-3.1-2-4.8c0.1-3.7,3.2-6.7,6.9-6.7
			c1.8,0,3.5,0.7,4.8,2.1c1.3,1.3,2,3,1.9,4.8C39.9,52.9,36.7,56,33.2,56z M33.2,43.7c-3,0-5.6,2.4-5.6,5.5c0,1.4,0.6,2.8,1.6,3.9
			c1.1,1.1,2.5,1.7,3.9,1.7h0c2.9,0,5.6-2.6,5.6-5.5c0-1.4-0.6-2.8-1.6-3.9C36.1,44.3,34.6,43.7,33.2,43.7z"/>
		<path class="st0" d="M42.6,72.5H23.1l0-0.6c0-0.1,0-0.2,0-0.2V69c-0.1-2.6-0.1-4.9,0-7.1c0-0.1,0-0.3,0.1-1.3c0-0.2,0-0.5,0-0.7
			c0-0.1,0-0.1,0-0.2l0-0.1c0.1-0.9,0.6-1.5,1.5-1.8l0.2,0c0.7-0.2,1.5-0.5,2.2-0.7c0.1-0.1,0.2-0.1,0.2-0.1c0,0,0,0,0.1,0l0.1-0.1
			h0.1c0,0,0,0,0.1-0.1c0.2-0.1,0.5-0.2,0.7-0.2c0,0,0.1,0,0.1,0c0.2-0.1,0.4-0.1,0.5-0.1c0.3,0,0.6,0.2,0.8,0.3l0.2,0.2v0.1
			c0.7,0.7,2,2.5,3.1,4.1c0.4-0.6,1.1-1.4,1.7-2.2c0.9-1.2,1.3-1.7,1.5-1.9c0.1-0.1,0.1-0.2,0.2-0.2c0.1-0.1,0.3-0.3,0.7-0.3h0.3
			l0.1,0.1c0.1,0,0.3,0.1,0.4,0.1c0.1,0,0.2,0.1,0.3,0.1l0.1,0c0,0,0,0,0.1,0c0.1,0,0.2,0,0.3,0.1c0.1,0,0.1,0.1,0.2,0.1l0,0
			c0.7,0.2,1.5,0.5,2.3,0.7l0.2,0c1.1,0.3,1.5,1.2,1.5,1.8c0,0.1,0,0.5,0.1,0.8l0,0.3c0.1,0.5,0.1,0.9,0.1,1.1c0,1.1,0,2.3,0.1,3.5
			c0,1.1,0,2.3,0.1,3.5l0,2.6c0,0.1,0,0.1,0,0.2l0,0.6L42.6,72.5z M24.3,71.2h17.6l0-2.2c0-1.2,0-2.4-0.1-3.5c0-1.2,0-2.4-0.1-3.5
			c0-0.2,0-0.6-0.1-1l0-0.3c-0.1-0.5-0.1-0.9-0.1-1c0-0.2-0.1-0.5-0.5-0.6l-0.2,0c-0.8-0.2-1.6-0.5-2.3-0.7c-0.1,0-0.2-0.1-0.3-0.1
			c0,0,0,0-0.1,0c0,0,0,0-0.1,0c-0.1,0-0.2,0-0.2-0.1c-0.1,0-0.3-0.1-0.4-0.1c-0.1,0-0.2-0.1-0.2-0.1l-0.1,0.1
			c-0.2,0.2-0.9,1.1-1.4,1.8c-0.6,0.8-1.2,1.6-1.7,2.2c-0.2,0.3-0.6,0.5-1,0.5c-0.4,0-0.8-0.2-1-0.5c-1-1.4-2.6-3.5-3-3.9l-0.3-0.1
			c0,0,0,0,0,0c-0.1,0-0.3,0.1-0.4,0.1c-0.1,0.1-0.3,0.1-0.5,0.2c0,0,0,0,0,0l0,0l-0.1,0c-0.8,0.3-1.6,0.5-2.4,0.8l-0.2,0
			c-0.4,0.1-0.5,0.4-0.5,0.7c0,0.1,0,0.1,0,0.2c0,0.2,0,0.4,0,0.6l0,0.1c-0.1,0.9-0.1,1.2-0.1,1.2c-0.1,2.2-0.1,4.5,0,7L24.3,71.2z
			 M29,57.8C29,57.8,29,57.8,29,57.8C29,57.8,29,57.8,29,57.8l0-0.2l0,0L29,57.8z M29,57.3L29,57.3l0-0.1L29,57.3z"/>
	</g>
	<g>
		<path class="st1" d="M38.5,21.1c1.7,0,3.1,1.4,3.1,3.1c0,1.7-1.4,3.1-3.1,3.1s-3.1-1.4-3.1-3.1C35.4,22.5,36.8,21.1,38.5,21.1"/>
	</g>
	<g>
		<path class="st1" d="M22.1,37.7c1.7,0,3.1,1.4,3.1,3.1s-1.4,3.1-3.1,3.1s-3.1-1.4-3.1-3.1S20.4,37.7,22.1,37.7"/>
	</g>
	<g>
		<path class="st0" d="M45.2,41.4c-2,0.5-3.9,0.9-5.7,1c0.1,0.1,0.3,0.2,0.4,0.4c0.1,0.1,0.2,0.2,0.3,0.3c1.9-0.2,3.7-0.6,5.3-1
			C45.4,41.9,45.3,41.7,45.2,41.4z"/>
		<path class="st0" d="M47.8,14.2c-4.5-2.8-9.6-4.2-14.7-4.2c-2.2,0-4.4,0.3-6.6,0.8C19.2,12.5,13,17,9.1,23.4
			C1,36.6,5.1,53.9,18.2,62c0.7,0.5,1.5,0.9,2.4,1.3c0-0.5,0-0.9,0.1-1.4c0-0.1,0-0.2,0-0.4c0,0,0-0.1,0-0.1
			c-0.3-0.2-0.6-0.4-0.9-0.5c-0.2-0.1-0.4-0.2-0.5-0.3l-0.1,0c-0.2-0.1-0.3-0.2-0.4-0.3l-0.3-0.2l0-0.4c-0.2-5.1,0.7-10.2,2.6-15.1
			c-0.3-0.1-0.5-0.2-0.8-0.3c-1.8,4.4-2.7,9-2.7,13.8v1.3l-1-0.8c-7.7-6.1-11.4-16.3-9.3-26l0.2-1.1l0.8,0.8c2,2,4.3,3.7,6.6,5.2
			c1.1,0.7,2.2,1.3,3.3,1.8c0.1-0.2,0.2-0.5,0.3-0.7c-1.1-0.5-2.2-1.2-3.3-1.8c-2.8-1.7-5.2-3.7-7.3-5.9l-0.3-0.3l0.1-0.3
			c0.7-2.2,1.6-4.2,2.8-6c1.3-2.2,3-4.2,5.1-6l1.1-1l-0.1,1.5C16.3,25,17.4,31.3,20,37.2c0.2-0.1,0.4-0.2,0.7-0.3
			c-2.8-6.3-3.9-13.2-3.1-19.9l0-0.3l0.2-0.2c1.3-1,2.7-1.7,3.9-2.2l0.2-0.1l0.2,0.1c3.3,1,6.5,2.4,9.5,4.2c1.5,0.9,2.8,1.9,3.9,2.8
			c0.2-0.2,0.4-0.3,0.6-0.5c-1.2-1-2.6-1.9-4.1-2.9c-2.5-1.5-5-2.7-7.3-3.5L23,13.7l1.8-0.6c7.4-2.5,15.4-1.5,22,2.6
			c1.5,0.9,2.8,2,4.1,3.1l1,0.9l-1.3,0.2c-3,0.5-5.8,1.3-8.5,2.3c0.1,0.2,0.2,0.4,0.3,0.7c3.1-1.2,6.3-2,9.8-2.5l0.3,0l0.2,0.2
			c3.3,3.8,5.5,8.4,6.3,13.4l0.1,0.4l-0.3,0.2c-1.9,1.4-3.9,2.7-5.9,3.7c0.1,0.3,0.2,0.6,0.3,0.9c1.8-0.9,3.5-1.9,5.2-3.1l0.9-0.7
			l0.1,1.1c0.3,5.5-1,10.9-3.9,15.5c-1.1,1.9-2.5,3.6-4.1,5.1L50,58.3l0.3-1.8c0.6-4.1,0.5-8.2-0.2-12.4c-0.3,0.1-0.5,0.1-0.8,0.1
			c0.9,4.7,0.8,9.5-0.1,14.2l-0.1,0.6L48.5,59c-1.1-0.2-2.2-0.5-3.3-0.8c0.1,0.3,0.2,0.5,0.2,0.8c0.5,0.1,0.9,0.2,1.4,0.3l1.7,0.3
			l-1.5,0.8c-0.2,0.1-0.4,0.2-0.5,0.3c-0.3,0.1-0.5,0.3-0.8,0.4c0,0.2,0,0.4,0,0.6c0,0.5,0,0.9,0,1.3c4.6-2.3,8.5-5.8,11.3-10.3
			C65,39.7,60.9,22.4,47.8,14.2z"/>
		<path class="st0" d="M47.7,36.2c-1.4-3.4-3.3-6.7-5.8-9.8c-0.1,0.2-0.3,0.4-0.5,0.6c2.4,2.9,4.3,6.1,5.6,9.5
			C47.3,36.4,47.5,36.3,47.7,36.2z"/>
		<path class="st0" d="M26,42.2l1,0.3c0.2-0.2,0.5-0.4,0.8-0.6c-0.5-0.1-1-0.2-1.6-0.4C26.1,41.7,26.1,42,26,42.2z"/>
		<path class="st0" d="M24.1,44.3L24.1,44.3c0.3,0.4,0.5,0.7,0.7,0.9c0.1-0.3,0.3-0.5,0.4-0.7c-0.2-0.2-0.3-0.4-0.5-0.7
			C24.6,44.1,24.4,44.2,24.1,44.3z"/>
		<path class="st0" d="M24,37c0.3,0.1,0.5,0.3,0.7,0.5c2.9-4.3,6.4-7.9,10.5-10.7c-0.2-0.2-0.3-0.5-0.5-0.7C30.6,28.8,27,32.5,24,37
			z"/>
	</g>
	<g>
		<path class="st1" d="M49.1,37.1c1.7,0,3.1,1.4,3.1,3.1s-1.4,3.1-3.1,3.1s-3.1-1.4-3.1-3.1S47.4,37.1,49.1,37.1"/>
	</g>
</g>
</svg>
