<?xml version="1.0" encoding="utf-8"?>
<!-- Generator: Adobe Illustrator 22.1.0, SVG Export Plug-In . SVG Version: 6.00 Build 0)  -->
<svg version="1.1" id="Layer_1" xmlns="http://www.w3.org/2000/svg" xmlns:xlink="http://www.w3.org/1999/xlink" x="0px" y="0px"
	 viewBox="0 0 87 81.4" style="enable-background:new 0 0 87 81.4;" xml:space="preserve">
<style type="text/css">
	.st0{fill:#0072BC;}
	.st1{fill:#F99D1C;}
</style>
<g>
	<g>
		<path class="st0" d="M82.6,32c-2.2-2.2-5.2-3.4-8.3-3.4c-6.1,0-11.2,4.7-11.7,10.7h-6.9c-0.3-2.7-1.3-5.2-2.9-7.3l7.1-6.5
			c1.3,0.9,2.9,1.4,4.5,1.4c4.3,0,7.9-3.5,7.9-7.9S68.8,11,64.5,11s-7.9,3.5-7.9,7.9c0,1.4,0.4,2.8,1.1,4l-7.1,6.5
			c-2.8-2.4-6.3-3.7-10-3.7c-2.1,0-4.1,0.4-6,1.3l-2.1-3.7c3-2.3,4.9-6,4.9-9.8c0-6.8-5.6-12.4-12.4-12.4c-6.8,0-12.4,5.6-12.4,12.4
			c0,6.8,5.6,12.4,12.4,12.4c1.6,0,3.2-0.3,4.7-0.9l2.1,3.7c-2.5,1.8-4.4,4.4-5.4,7.4l-10-2.2c-0.1-3.9-3.2-7-7.1-7
			c-3.9,0-7.1,3.2-7.1,7.1c0,3.9,3.2,7.1,7.1,7.1c2.7,0,5.2-1.5,6.4-4l10,2.2c-0.1,0.5-0.1,1.1-0.1,1.7c0,2.3,0.5,4.6,1.5,6.7
			l-4.5,2.8c-2.3-2.8-5.7-4.3-9.3-4.3C6.5,46.1,1,51.6,1,58.3C1,65,6.5,70.5,13.2,70.5S25.4,65,25.4,58.3c0-1.8-0.4-3.5-1.1-5.1
			l4.5-2.8c2.9,3.6,7.3,5.7,11.8,5.7c0.8,0,1.6-0.1,2.4-0.2l2.9,10.8c-2.3,1.3-3.8,3.7-3.8,6.4c0,4,3.2,7.2,7.2,7.2
			c4,0,7.2-3.2,7.2-7.2s-3.2-7.2-7.2-7.2c-0.1,0-0.2,0-0.3,0L46.2,55c5.3-2.1,8.9-6.8,9.5-12.5h7.1c1.1,5.4,6,9.5,11.5,9.5
			C80.8,52,86,46.8,86,40.3C86,37.2,84.8,34.2,82.6,32z M45.2,54l-0.6,0.2l3.5,13.1l0.6-0.1c0.2,0,0.5,0,0.7,0
			c3.3,0,5.9,2.7,5.9,5.9S52.6,79,49.4,79c-3.3,0-5.9-2.7-5.9-5.9c0-2.3,1.4-4.5,3.5-5.4l0.5-0.2l-3.5-13.1l-0.6,0.1
			c-0.9,0.2-1.8,0.3-2.7,0.3c-4.4,0-8.6-2.1-11.2-5.6l-0.4-0.5l-6.5,4.1l0.3,0.5c0.8,1.6,1.2,3.3,1.2,5c0,6-4.9,10.9-10.9,10.9
			c-6,0-10.9-4.9-10.9-10.9c0-6,4.9-10.9,10.9-10.9c3.4,0,6.6,1.6,8.7,4.3l0.4,0.5l6.5-4.1l-0.3-0.5c-1.1-2-1.7-4.3-1.7-6.6
			c0-0.7,0.1-1.4,0.2-2.1l0.1-0.6l-12.3-2.7L14.6,36c-0.9,2.2-3,3.7-5.4,3.7c-3.2,0-5.8-2.6-5.8-5.8c0-3.2,2.6-5.8,5.8-5.8
			c3.2,0,5.8,2.6,5.8,5.8c0,0.1,0,0.2,0,0.3l0,0.7l12.3,2.7l0.2-0.6c0.9-3.1,2.9-5.8,5.6-7.6l0.5-0.3l-3.3-5.8l-0.5,0.3
			c-1.5,0.7-3,1-4.7,1c-6.1,0-11.1-5-11.1-11.1s5-11.1,11.1-11.1C31,2.4,36,7.4,36,13.5c0,3.6-1.8,7-4.8,9.1l-0.5,0.3l3.3,5.8
			l0.5-0.3c1.9-0.9,3.9-1.4,6-1.4c3.6,0,6.9,1.3,9.5,3.8l0.4,0.4l8.8-8.1l-0.3-0.5c-0.8-1.1-1.2-2.4-1.2-3.7c0-3.6,3-6.6,6.6-6.6
			c3.6,0,6.6,3,6.6,6.6s-3,6.6-6.6,6.6c-1.5,0-3-0.5-4.2-1.5l-0.4-0.4l-8.8,8.1l0.4,0.5c1.8,2.2,2.8,4.9,3,7.7l0,0.6h9.3l0-0.6
			c0.2-5.6,4.8-10.1,10.4-10.1c5.8,0,10.4,4.7,10.4,10.4c0,5.8-4.7,10.4-10.4,10.4c-5.2,0-9.6-3.8-10.3-8.9l-0.1-0.6h-9.4l0,0.6
			C54.1,47.4,50.4,52.2,45.2,54z"/>
		<path class="st0" d="M16.7,59.2c0.6-0.8,0.9-1.7,0.9-2.7c0-2.4-2-4.4-4.4-4.4c-2.4,0-4.4,2-4.4,4.4c0,1,0.3,1.9,0.9,2.7
			c-1.8,0.5-3.3,2-3.2,3.9c0.1,0.8,0.9,1.3,1.6,1.3h10.2c0.7,0,1.5-0.5,1.6-1.3C20.1,61.2,18.5,59.8,16.7,59.2z M13.2,59.7
			c-1.7,0-3.1-1.4-3.1-3.1c0-1.7,1.4-3.1,3.1-3.1c1.7,0,3.1,1.4,3.1,3.1C16.3,58.3,14.9,59.7,13.2,59.7z M10.5,60.4
			c1.6,1.1,3.9,1.1,5.5,0c1.4,0.3,2.7,1.3,2.6,2.6c0,0-0.1,0.1-0.3,0.1H8.1C8,63.1,7.8,63,7.8,63c0,0,0,0,0,0
			C7.7,61.7,9.1,60.7,10.5,60.4z"/>
		<path class="st0" d="M31.5,18.4c0.2-1.9-1.4-3.4-3.2-3.9c0.6-0.8,0.9-1.7,0.9-2.7c0-2.4-2-4.4-4.4-4.4c-2.4,0-4.4,2-4.4,4.4
			c0,1,0.3,1.9,0.9,2.7c-1.8,0.5-3.3,2-3.2,3.9c0.1,0.8,0.9,1.3,1.6,1.3h10.2C30.6,19.6,31.4,19.2,31.5,18.4z M24.8,14.9
			c-1.7,0-3.1-1.4-3.1-3.1s1.4-3.1,3.1-3.1c1.7,0,3.1,1.4,3.1,3.1S26.5,14.9,24.8,14.9z M22,15.6c1.6,1.1,3.9,1.1,5.5,0
			c1.4,0.3,2.7,1.3,2.6,2.6c0,0-0.1,0.1-0.3,0.1H19.7c-0.1,0-0.3-0.1-0.3-0.1C19.3,16.9,20.6,15.9,22,15.6z"/>
		<path class="st0" d="M69.2,46.5h10.2c0.7,0,1.5-0.5,1.6-1.3c0.2-1.9-1.4-3.4-3.2-3.9c0.6-0.8,0.9-1.7,0.9-2.7c0-2.4-2-4.4-4.4-4.4
			c-2.4,0-4.4,2-4.4,4.4c0,1,0.3,1.9,0.9,2.7c-1.8,0.5-3.3,2-3.2,3.9C67.7,46,68.4,46.5,69.2,46.5z M74.3,41.7
			c-1.7,0-3.1-1.4-3.1-3.1c0-1.7,1.4-3.1,3.1-3.1c1.7,0,3.1,1.4,3.1,3.1C77.4,40.3,76,41.7,74.3,41.7z M71.5,42.4
			c1.6,1.1,3.9,1.1,5.5,0c1.4,0.3,2.7,1.3,2.6,2.6c0,0-0.1,0.1-0.3,0.1H69.2c-0.1,0-0.3-0.1-0.3-0.1C68.8,43.8,70.1,42.7,71.5,42.4z
			"/>
	</g>
	<path class="st1" d="M44.6,41.6c0.8-0.9,1.3-2.1,1.3-3.4c0-2.8-2.3-5.2-5.2-5.2c-2.8,0-5.2,2.3-5.2,5.2c0,1.3,0.4,2.4,1.3,3.4
		c-2.2,0.6-4.2,2.3-4,4.6c0.1,0.8,0.9,1.3,1.7,1.3h12.4c0.8,0,1.6-0.5,1.7-1.3C48.8,43.9,46.8,42.2,44.6,41.6z M40.7,42.2
		c-2.2,0-4-1.8-4-4c0-2.2,1.8-4,4-4c2.2,0,4,1.8,4,4C44.7,40.4,42.9,42.2,40.7,42.2z M37.4,42.7c0.9,0.7,2.1,1.1,3.3,1.1
		c1.2,0,2.3-0.4,3.3-1.1c1.8,0.3,3.6,1.6,3.4,3.5c0,0.1-0.3,0.3-0.5,0.3H34.5c-0.3,0-0.5-0.1-0.5-0.3C33.8,44.3,35.6,43,37.4,42.7z"
		/>
</g>
</svg>
