<?xml version="1.0" encoding="utf-8"?>
<!-- Generator: Adobe Illustrator 21.1.0, SVG Export Plug-In . SVG Version: 6.00 Build 0)  -->
<svg version="1.1" id="Layer_1" xmlns="http://www.w3.org/2000/svg" xmlns:xlink="http://www.w3.org/1999/xlink" x="0px" y="0px"
	 viewBox="0 0 66 82.5" style="enable-background:new 0 0 66 82.5;" xml:space="preserve">
<style type="text/css">
	.st0{fill:#0C73BA;}
	.st1{fill:#F79D21;}
</style>
<g>
	<g>
		<path class="st0" d="M21,27.2h3.2l0.1,0.4c0.4,1.6,1.8,2.7,3.5,2.7c2,0,3.6-1.6,3.6-3.6c0-2-1.6-3.6-3.6-3.6
			c-1.6,0-3.1,1.1-3.5,2.7l-0.1,0.4H21l-0.1-0.4c-0.4-1.6-1.8-2.7-3.5-2.7c-2,0-3.6,1.6-3.6,3.6c0,2,1.6,3.6,3.6,3.6
			c1.6,0,3.1-1.1,3.5-2.7L21,27.2z M27.8,29.3c-1.4,0-2.6-1.2-2.6-2.6c0-1.4,1.2-2.6,2.6-2.6c1.4,0,2.6,1.2,2.6,2.6
			C30.4,28.1,29.2,29.3,27.8,29.3z M17.4,29.3c-1.4,0-2.6-1.2-2.6-2.6c0-1.4,1.2-2.6,2.6-2.6c1.4,0,2.6,1.2,2.6,2.6
			C20,28.1,18.8,29.3,17.4,29.3z"/>
	</g>
	<g>
		<path class="st0" d="M38.7,69.8h1v-3.1h6.8c4.9,0,8.8-4,8.8-8.8v-4.7l0.5-0.1c3.3-0.5,5.8-3.3,5.8-6.7c0-3.7-3-6.7-6.7-6.7
			c-3.7,0-6.7,3-6.7,6.7c0,3.3,2.5,6.2,5.8,6.7l0.5,0.1v4.7c0,4.3-3.5,7.8-7.8,7.8h-6.8v-8.9c0-4.2-3-7.9-7.2-8.7l-1.3-0.3l1.2-0.7
			c5.3-3.4,8.4-9.1,8.4-15.3v-3.1c0-1.4-1.2-2.6-2.6-2.6h-2.6v-6.8c0-3.7-3-6.7-6.7-6.7H4.9c-0.3,0-0.5,0.2-0.5,0.5
			c0,1.7,0.7,3.2,2,4.3l0.3,0.3l-0.2,0.4c0,0.1-0.1,0.1-0.1,0.2c0,2,1.1,3.9,2.8,4.9l0.3,0.2v2.7H7c0,0,0,0,0,0
			c-0.7,0-1.3,0.3-1.8,0.8c-0.5,0.5-0.8,1.1-0.8,1.8v3.1c0,6.2,3.1,11.9,8.4,15.3l1.2,0.7l-1.3,0.3c-4.2,0.8-7.2,4.4-7.2,8.7v13h1
			v-13c0-4.3,3.5-7.8,7.8-7.8h1.5v-0.3l0.7,0.3c1.6,0.6,3.3,0.9,5,1l0.5,0v7.8c0,4.9,4,8.8,8.8,8.8h7.8V69.8z M38.7,65.7h-7.8
			c-4.3,0-7.8-3.5-7.8-7.8V50l0.5,0c1.7-0.1,3.4-0.4,5-1l0.7-0.3V49h1.5c4.3,0,7.8,3.5,7.8,7.8V65.7z M54.8,52.2
			c-3.2,0-5.7-2.6-5.7-5.7c0-3.2,2.6-5.7,5.7-5.7c3.2,0,5.7,2.6,5.7,5.7C60.6,49.6,58,52.2,54.8,52.2z M22.6,49.1
			c-9.5,0-17.2-7.7-17.2-17.2l0-3.1c0-0.9,0.7-1.6,1.6-1.6h2.6v4.7c0,7.2,5.8,13,13,13s13-5.8,13-13v-4.7h2.6c0.9,0,1.6,0.7,1.6,1.6
			v3.1C39.8,41.4,32.1,49.1,22.6,49.1z M22.6,43.9c-6.6,0-12-5.4-12-12v-8.8c0-0.2-0.1-0.4-0.3-0.5C9,22.1,8,21,7.7,19.5l-0.2-0.7
			h2.6c0.3,0,0.5-0.2,0.5-0.5c0-0.3-0.2-0.5-0.5-0.5c-2.1,0-4-1.4-4.6-3.5l-0.2-0.7h23.4c3.2,0,5.7,2.6,5.7,5.7v12.5
			C34.6,38.5,29.2,43.9,22.6,43.9z"/>
	</g>
	<g>
		<path class="st1" d="M54.8,43.9c-1.4,0-2.6,1.2-2.6,2.6c0,1.4,1.2,2.6,2.6,2.6c1.4,0,2.6-1.2,2.6-2.6C57.4,45,56.3,43.9,54.8,43.9
			z M54.8,48c-0.9,0-1.6-0.7-1.6-1.6c0-0.9,0.7-1.6,1.6-1.6c0.9,0,1.6,0.7,1.6,1.6C56.4,47.3,55.7,48,54.8,48z"/>
	</g>
	<g>
		<path class="st0" d="M10.1,59.5c-0.3,0-0.5,0.2-0.5,0.5v8.3c0,0.2,0.2,0.4,0.4,0.5l4.2,1c0.1,0,0.2,0,0.2,0l4.2-1
			c0.2-0.1,0.4-0.3,0.4-0.5V60c0-0.3-0.2-0.5-0.5-0.5H10.1z M14.3,68.8l-3.7-0.9v-7.4h7.3v7.4L14.3,68.8z"/>
	</g>
	<g>
		<path class="st0" d="M23.1,39.7v1c3.3-0.3,5.9-2.9,6.2-6.2h-1c-0.1,1.3-0.7,2.6-1.7,3.5C25.7,39,24.5,39.6,23.1,39.7z"/>
	</g>
	<g>
		<path class="st1" d="M50,36.7h1.3v-1.3H50V36.7z"/>
	</g>
	<g>
		<path class="st1" d="M54.2,36.7h1.3v-1.3h-1.3V36.7z"/>
	</g>
	<g>
		<path class="st1" d="M58.4,36.7h1.3v-1.3h-1.3V36.7z"/>
	</g>
</g>
</svg>
