<?xml version="1.0" encoding="utf-8"?>
<!-- Generator: Adobe Illustrator 21.1.0, SVG Export Plug-In . SVG Version: 6.00 Build 0)  -->
<svg version="1.1" id="Layer_1" xmlns="http://www.w3.org/2000/svg" xmlns:xlink="http://www.w3.org/1999/xlink" x="0px" y="0px"
	 viewBox="0 0 66 82.5" style="enable-background:new 0 0 66 82.5;" xml:space="preserve">
<style type="text/css">
	.st0{clip-path:url(#SVGID_2_);fill:#F99E1E;}
	.st1{clip-path:url(#SVGID_2_);fill:#0A72BA;}
</style>
<g>
	<g>
		<defs>
			<rect id="SVGID_1_" x="3.5" y="18.4" width="59" height="45.6"/>
		</defs>
		<clipPath id="SVGID_2_">
			<use xlink:href="#SVGID_1_"  style="overflow:visible;"/>
		</clipPath>
		<path class="st0" d="M33.4,35.5c-2.9,0-5.3-2.4-5.3-5.3s2.4-5.3,5.3-5.3s5.3,2.4,5.3,5.3S36.3,35.5,33.4,35.5 M33.4,25.9
			c-2.4,0-4.3,1.9-4.3,4.3s1.9,4.3,4.3,4.3s4.3-1.9,4.3-4.3S35.8,25.9,33.4,25.9"/>
		<path class="st0" d="M37.8,64.1H29c-0.5,0-1-0.6-1-1V51.7c-0.7-0.7-1.6-1.8-1.6-2.5V38.9c0-1.1,0.9-2.3,3.6-2.3h6.5
			c2.5,0,3.9,1.2,3.9,2.3l0,10.4c0,0.7-1,1.8-1.7,2.5V63C38.8,63.5,38.3,64.1,37.8,64.1 M29.1,63.1h8.7c0,0,0-0.1,0-0.1l0-11.7
			l0.1-0.1c0.8-0.8,1.5-1.7,1.5-1.9l0-10.4c0-0.4-0.7-1.4-2.9-1.4H30c-1.8,0-2.7,0.7-2.7,1.4v10.4c0,0.2,0.7,1.1,1.5,1.9l0.1,0.1
			L29.1,63.1C29,63,29.1,63.1,29.1,63.1"/>
		<path class="st1" d="M22.1,32.2c-2.9,0-5.3-2.4-5.3-5.3c0-2.9,2.4-5.3,5.3-5.3s5.3,2.4,5.3,5.3C27.4,29.8,25,32.2,22.1,32.2
			 M22.1,22.6c-2.4,0-4.3,1.9-4.3,4.3c0,2.4,1.9,4.3,4.3,4.3s4.3-1.9,4.3-4.3C26.4,24.5,24.5,22.6,22.1,22.6"/>
		<path class="st1" d="M18.7,34.2h7.7v-1h-7.7c-2.7,0-3.6,1.3-3.6,2.3v10.4c0,0.7,1,1.8,1.6,2.5v11.3c0,0.5,0.4,1,1,1h8.7l0-1h-8.6
			c0,0-0.1-0.1-0.1-0.1V48l-0.1-0.1c-0.8-0.8-1.5-1.7-1.5-1.9V35.6C16,34.9,16.8,34.2,18.7,34.2"/>
		<path class="st1" d="M10.5,29c-2.9,0-5.3-2.4-5.3-5.3s2.4-5.3,5.3-5.3s5.3,2.4,5.3,5.3S13.4,29,10.5,29 M10.5,19.4
			c-2.4,0-4.3,1.9-4.3,4.3c0,2.4,1.9,4.3,4.3,4.3s4.3-1.9,4.3-4.3C14.8,21.3,12.9,19.4,10.5,19.4"/>
		<path class="st1" d="M7.1,31h7.7v-1H7.1c-2.7,0-3.6,1.3-3.6,2.3v10.4c0,0.7,1,1.8,1.6,2.5v11.3c0,0.5,0.4,1,1,1h8.7l0-1H6.2
			c0,0-0.1-0.1-0.1-0.1V44.8L6,44.7c-0.8-0.8-1.5-1.7-1.5-1.9V32.4C4.5,31.7,5.3,31,7.1,31"/>
		<path class="st1" d="M39.2,26.9c0-2.9,2.4-5.3,5.3-5.3s5.3,2.4,5.3,5.3c0,2.9-2.4,5.3-5.3,5.3C41.5,32.2,39.2,29.8,39.2,26.9
			 M40.1,26.9c0,2.4,1.9,4.3,4.3,4.3c2.4,0,4.3-1.9,4.3-4.3c0-2.4-1.9-4.3-4.3-4.3C42.1,22.6,40.1,24.5,40.1,26.9"/>
		<path class="st1" d="M47.8,34.2h-7.7v-1h7.7c2.7,0,3.6,1.3,3.6,2.3v10.4c0,0.7-1,1.8-1.6,2.5v11.3c0,0.5-0.4,1-1,1h-8.7l0-1h8.6
			c0,0,0.1-0.1,0.1-0.1V48l0.1-0.1c0.8-0.8,1.5-1.7,1.5-1.9V35.6C50.5,34.9,49.7,34.2,47.8,34.2"/>
		<path class="st1" d="M50.2,23.7c0-2.9,2.4-5.3,5.3-5.3c2.9,0,5.3,2.4,5.3,5.3c0,2.9-2.4,5.3-5.3,5.3C52.6,29,50.2,26.7,50.2,23.7
			 M51.2,23.7c0,2.4,1.9,4.3,4.3,4.3c2.4,0,4.3-1.9,4.3-4.3c0-2.4-1.9-4.3-4.3-4.3C53.1,19.4,51.2,21.3,51.2,23.7"/>
		<path class="st1" d="M58.9,31h-7.7v-1h7.7c2.7,0,3.6,1.3,3.6,2.3v10.4c0,0.7-1,1.8-1.6,2.5v11.3c0,0.5-0.4,1-1,1h-8.7l0-1h8.6
			c0,0,0.1-0.1,0.1-0.1V44.8l0.1-0.1c0.8-0.8,1.5-1.7,1.5-1.9V32.4C61.5,31.7,60.7,31,58.9,31"/>
	</g>
</g>
</svg>
