<?xml version="1.0" encoding="utf-8"?>
<!-- Generator: Adobe Illustrator 22.1.0, SVG Export Plug-In . SVG Version: 6.00 Build 0)  -->
<svg version="1.1" id="Layer_1" xmlns="http://www.w3.org/2000/svg" xmlns:xlink="http://www.w3.org/1999/xlink" x="0px" y="0px"
	 viewBox="0 0 100 95.7" style="enable-background:new 0 0 100 95.7;" xml:space="preserve">
<style type="text/css">
	.st0{fill:#0072BC;}
	.st1{fill:#F99D1C;}
</style>
<path class="st0" d="M98,89.6H69.3v-4.5c0-1,0.5-2,1.3-2.7c2.4-2,5.1-3.7,7.9-5.1v-2.2c-0.3-0.6-0.5-1.2-0.7-1.8
	c-0.6-0.4-0.9-1.3-1.2-2.2c-0.4-1.3-0.4-2.1,0.1-2.7c0.1-0.1,0.2-0.2,0.3-0.3c0-0.1,0-0.1,0-0.2c-0.2-0.9-0.2-2,0-3
	c0.3-1.2,0.9-2.3,1.8-3.1c0.5-0.5,1-0.9,1.6-1.3c0.5-0.3,1-0.6,1.6-0.8c0.5-0.2,1-0.3,1.5-0.3c1.2-0.1,2.5,0.1,3.6,0.8
	c0.7,0.3,1.3,0.9,1.7,1.5c0.3,0.1,0.8,0.4,1.3,0.9c0.9,1.1,1.1,2.9,0.7,5.3c0,0.1,0,0.1,0,0.2c0.1,0.1,0.2,0.1,0.3,0.2
	c0.4,0.5,0.5,1.4,0.1,2.8c-0.3,0.9-0.6,1.9-1.2,2.3c-0.2,0.6-0.4,1.2-0.7,1.7v2.2c2.8,1.4,5.4,3.1,7.8,5C97.6,83,98,84,98,85V89.6z
	 M70.8,88.1h25.8V85c0-0.6-0.3-1.1-0.7-1.5c-2.4-1.9-5-3.6-7.8-5c-0.3-0.2-0.5-0.5-0.6-0.9v-3l0.1-0.2c0.3-0.6,0.6-1.2,0.7-1.8
	l0.1-0.6h0.5c0.1-0.1,0.3-0.5,0.5-1.4c0.2-0.8,0.2-1.2,0.2-1.3l-1.1,0.1l0.3-1.1c0.1-0.2,0.1-0.5,0.2-0.7c0.4-2.4,0-3.5-0.4-4.1
	c-0.3-0.4-0.7-0.5-0.7-0.5l-0.4-0.1l-0.2-0.3c-0.3-0.5-0.8-1-1.3-1.2c-0.9-0.5-1.8-0.7-2.8-0.6c-0.4,0-0.8,0.1-1.1,0.2
	c-0.4,0.1-0.8,0.4-1.2,0.6c-0.5,0.3-0.9,0.7-1.3,1.1c-0.7,0.7-1.2,1.5-1.4,2.4c-0.2,0.8-0.2,1.6,0,2.3c0.1,0.3,0.1,0.5,0.2,0.7
	l0.4,1h-1.1c0,0,0,0,0,0c0,0.1,0,0.5,0.2,1.3c0.3,0.9,0.5,1.3,0.6,1.4l0.5,0l0.1,0.6c0.1,0.7,0.3,1.3,0.7,1.9l0.1,0.2v2.7
	c0,0.2,0,0.4-0.1,0.6c-0.1,0.2-0.3,0.4-0.5,0.5c-2.8,1.4-5.4,3.1-7.8,5c-0.5,0.4-0.7,0.9-0.7,1.5V88.1z M77.8,69.3L77.8,69.3
	L77.8,69.3z M30.8,89.6H2V85c0-1,0.5-2,1.3-2.7c2.4-2,5.1-3.7,7.9-5.1v-2.1c-0.3-0.6-0.5-1.2-0.7-1.8c-0.6-0.4-0.9-1.3-1.2-2.2
	c-0.4-1.3-0.3-2.1,0.1-2.7c0.1-0.1,0.2-0.2,0.3-0.3c0-0.1,0-0.1,0-0.2c-0.2-0.9-0.2-2,0-3c0.3-1.2,0.9-2.3,1.8-3.1
	c0.5-0.5,1-0.9,1.6-1.3c0.5-0.3,1-0.6,1.6-0.8c0.5-0.2,1-0.3,1.5-0.3c1.2-0.1,2.5,0.1,3.6,0.8c0.7,0.4,1.2,0.9,1.7,1.5
	c0.3,0.1,0.8,0.4,1.3,0.9c0.9,1.1,1.1,2.9,0.7,5.3c0,0.1,0,0.1,0,0.2c0.1,0.1,0.2,0.1,0.3,0.2c0.4,0.5,0.5,1.4,0.1,2.8
	c-0.3,0.9-0.6,1.8-1.2,2.3c-0.1,0.6-0.4,1.2-0.7,1.7v2.2c2.8,1.4,5.4,3.1,7.9,5c0.8,0.7,1.3,1.6,1.3,2.7V89.6z M3.5,88.1h25.8V85
	c0-0.6-0.3-1.1-0.7-1.5c-2.4-1.9-5.1-3.6-7.9-5c-0.3-0.2-0.6-0.5-0.6-0.9v-2.9l0.1-0.2c0.3-0.6,0.6-1.2,0.7-1.8l0.1-0.6h0.5
	c0.1-0.1,0.3-0.5,0.5-1.4c0.2-0.8,0.2-1.2,0.2-1.3l-1.1,0.1l0.3-1.1c0.1-0.2,0.1-0.5,0.2-0.7c0.4-2.4,0-3.5-0.4-4.1
	c-0.3-0.4-0.7-0.5-0.7-0.5l-0.4-0.1l-0.2-0.3c-0.3-0.5-0.7-1-1.3-1.2C17.9,61,17,60.8,16,60.9c-0.4,0-0.8,0.1-1.1,0.2
	c-0.4,0.1-0.8,0.4-1.2,0.6c-0.5,0.3-0.9,0.7-1.3,1.1c-0.7,0.7-1.2,1.5-1.4,2.4c-0.2,0.8-0.2,1.6,0,2.3c0.1,0.3,0.1,0.5,0.2,0.8
	l0.4,1h-1.1c0,0,0,0,0,0c0,0.1,0,0.5,0.2,1.3c0.3,0.9,0.5,1.3,0.6,1.4l0.5,0l0.1,0.6c0.1,0.7,0.3,1.3,0.7,1.9l0.1,0.2v2.8
	c0,0.4-0.2,0.7-0.6,0.9c-2.8,1.4-5.4,3.1-7.9,5c-0.5,0.4-0.7,0.9-0.7,1.5V88.1z M21.3,77.2C21.3,77.2,21.4,77.2,21.3,77.2
	C21.4,77.2,21.3,77.2,21.3,77.2z M11.4,77.1C11.4,77.1,11.4,77.1,11.4,77.1C11.4,77.1,11.4,77.1,11.4,77.1z M22.2,69.3L22.2,69.3
	L22.2,69.3z M64.4,31.6H35.6V27c0-1,0.5-2,1.3-2.7c2.4-2,5.1-3.7,7.9-5.1v-2.1c-0.3-0.6-0.5-1.2-0.7-1.8c-0.6-0.4-0.9-1.3-1.2-2.2
	c-0.4-1.3-0.4-2.1,0.1-2.7c0.1-0.1,0.2-0.2,0.3-0.3c0-0.1,0-0.1,0-0.2c-0.2-0.9-0.2-2,0-3c0.3-1.2,0.9-2.3,1.8-3.1
	c0.5-0.5,1-0.9,1.6-1.3c0.5-0.3,1-0.6,1.6-0.8c0.5-0.2,1-0.3,1.5-0.3c1.2-0.1,2.5,0.1,3.6,0.8c0.7,0.4,1.2,0.9,1.7,1.5
	c0.3,0.1,0.8,0.4,1.3,0.9c0.9,1.1,1.1,2.9,0.7,5.3c0,0.1,0,0.1,0,0.2c0.1,0.1,0.2,0.1,0.3,0.2c0.4,0.5,0.5,1.4,0.1,2.8
	c-0.3,0.9-0.6,1.9-1.2,2.3c-0.2,0.6-0.4,1.2-0.7,1.7v2.1c2.8,1.4,5.4,3.1,7.9,5.1c0.8,0.7,1.3,1.6,1.3,2.7L64.4,31.6z M37.1,30.1
	h25.8l0-3.1c0-0.6-0.3-1.1-0.7-1.5c-2.4-2-5.1-3.6-7.9-5c-0.3-0.2-0.5-0.5-0.6-0.9v-2.9l0.1-0.2c0.3-0.6,0.6-1.2,0.7-1.8l0.1-0.6
	h0.5c0.1-0.1,0.3-0.5,0.5-1.4c0.2-0.8,0.2-1.2,0.2-1.3l-1.1,0.1l0.3-1.1c0.1-0.2,0.1-0.5,0.2-0.7c0.4-2.4,0-3.5-0.4-4.1
	c-0.3-0.4-0.7-0.5-0.7-0.5L54,5.1l-0.2-0.3c-0.3-0.5-0.7-1-1.3-1.2c-0.8-0.5-1.8-0.7-2.8-0.6c-0.4,0-0.8,0.1-1.1,0.2
	c-0.4,0.1-0.8,0.4-1.2,0.6c-0.5,0.3-0.9,0.7-1.3,1.1c-0.7,0.7-1.2,1.5-1.4,2.4c-0.2,0.8-0.2,1.6,0,2.3c0.1,0.3,0.1,0.5,0.2,0.7
	l0.4,1h-1.1c0,0,0,0,0,0c0,0.1,0,0.5,0.2,1.3c0.3,0.9,0.5,1.3,0.6,1.4l0.5,0l0.1,0.6c0.1,0.7,0.3,1.3,0.7,1.9l0.1,0.2v2.8
	c0,0.4-0.2,0.7-0.6,0.9c-2.8,1.4-5.4,3.1-7.9,5c-0.5,0.4-0.7,0.9-0.7,1.5V30.1z M55,19.1C55,19.1,55,19.1,55,19.1
	C55,19.1,55,19.1,55,19.1z M45,19.1C45,19.1,45,19.1,45,19.1C45,19.1,45,19.1,45,19.1z"/>
<path class="st1" d="M50,76.2c-9.6,0-17.4-7.8-17.4-17.4c0-9.6,7.8-17.4,17.4-17.4s17.4,7.8,17.4,17.4C67.5,68.4,59.6,76.2,50,76.2z
	 M50,42.8c-8.8,0-15.9,7.1-15.9,15.9c0,8.8,7.1,15.9,15.9,15.9S66,67.6,66,58.8C66,50,58.8,42.8,50,42.8z"/>
<path class="st1" d="M44.8,66.6c0.9,0.4,1.9,0.7,2.8,0.8c0.8,0.1,0.8,0.2,0.8,0.9c0,0.4,0,0.7,0,1.1c-0.1,0.3,0.2,0.7,0.5,0.7
	c0,0,0.1,0,0.1,0c0.5,0,1.1,0,1.6,0c0.3,0,0.6-0.2,0.7-0.6c0,0,0-0.1,0-0.1c0-0.5,0-1,0-1.5c-0.1-0.4,0.2-0.8,0.7-0.9c0,0,0,0,0,0
	c1.1-0.3,2.1-0.9,2.8-1.8c1.7-2.1,1.4-5.3-0.7-7c-0.3-0.2-0.6-0.4-0.9-0.6c-0.9-0.5-1.8-0.9-2.8-1.3c-0.5-0.2-1.1-0.5-1.5-0.9
	c-0.6-0.4-0.8-1.2-0.4-1.8c0.2-0.2,0.4-0.4,0.7-0.5c0.3-0.1,0.6-0.2,0.9-0.2c1.2-0.1,2.4,0.2,3.5,0.7c0.6,0.3,0.7,0.2,0.9-0.4
	s0.4-1.2,0.5-1.8c0.1-0.3,0-0.7-0.4-0.8c0,0,0,0-0.1,0c-0.7-0.3-1.5-0.5-2.2-0.7c-1-0.2-1-0.2-1-1.2c0-1.4,0-1.4-1.4-1.4h-0.6
	c-0.7,0-0.8,0.1-0.8,0.8c0,0.3,0,0.6,0,0.9c0,0.9,0,0.9-0.9,1.2c-2,0.6-3.4,2.4-3.5,4.4c-0.1,1.8,0.9,3.6,2.6,4.3
	c1,0.5,2.1,1,3.2,1.4c0.4,0.2,0.8,0.4,1.2,0.7c0.7,0.5,0.9,1.5,0.4,2.2c-0.2,0.3-0.5,0.5-0.8,0.6c-0.6,0.3-1.4,0.4-2.1,0.3
	c-1.1-0.1-2.2-0.4-3.1-0.9c-0.6-0.3-0.8-0.2-1,0.4s-0.3,1.1-0.5,1.6C44,66.1,44,66.3,44.8,66.6L44.8,66.6z"/>
<path class="st0" d="M81.9,54.3c-0.1-1.1,0.7-2,1.7-2.1c1.1-0.1,2,0.7,2.1,1.7c0.1,1.1-0.6,2-1.7,2.1h-0.2
	C82.8,56,82,55.3,81.9,54.3z"/>
<path class="st0" d="M68.9,31.7c0.9,0.6,2.1,0.4,2.7-0.4c0.6-0.9,0.4-2.1-0.4-2.7c-0.9-0.6-2.1-0.4-2.7,0.4S68,31.1,68.9,31.7
	C68.9,31.7,68.9,31.7,68.9,31.7z"/>
<path class="st0" d="M79.4,42.6c0.4,0,0.7-0.1,1-0.3c0.9-0.5,1.2-1.7,0.7-2.6c-0.5-0.9-1.7-1.2-2.6-0.7c-0.9,0.5-1.2,1.7-0.7,2.6
	C78.1,42.3,78.7,42.6,79.4,42.6z"/>
<path class="st0" d="M64.6,90.4c1-0.4,1.4-1.6,1-2.6s-1.6-1.4-2.6-1l0,0c-1,0.4-1.5,1.5-1.1,2.5c0.4,1,1.5,1.5,2.5,1.1
	C64.5,90.4,64.6,90.4,64.6,90.4L64.6,90.4z"/>
<path class="st0" d="M19.7,42.3c0.3,0.2,0.6,0.3,0.9,0.3c1.1,0,2-0.8,2-1.9s-0.8-2-1.9-2c-1.1,0-2,0.8-2,1.9
	C18.7,41.3,19.1,41.9,19.7,42.3z"/>
<path class="st0" d="M50,93.5L50,93.5c1.1,0,1.9-0.9,1.9-1.9c0-1.1-0.9-1.9-1.9-1.9c-1.1,0-1.9,0.9-1.9,1.9
	C48,92.6,48.9,93.5,50,93.5C50,93.5,50,93.5,50,93.5L50,93.5z"/>
<path class="st0" d="M30.1,32.1c1.1,0,2-0.8,2-1.9s-0.8-2-1.9-2c-1.1,0-2,0.8-2,1.9c0,0.4,0.1,0.8,0.4,1.2
	C28.9,31.8,29.5,32.1,30.1,32.1z"/>
<path class="st0" d="M16,56h0.2c1,0,1.9-0.7,2-1.7l0,0l0,0c0.1-1.1-0.7-2-1.7-2.1c-1.1-0.1-2,0.7-2.1,1.7l0,0l0,0l0,0
	C14.2,54.9,15,55.9,16,56z"/>
<path class="st0" d="M38,89.4c0.4-1,0-2.1-1-2.6s-2.1,0-2.6,1c-0.4,1,0,2.1,1,2.6c0.2,0.1,0.5,0.2,0.8,0.2
	C36.9,90.6,37.6,90.2,38,89.4z"/>
</svg>
