<?xml version="1.0" encoding="utf-8"?>
<!-- Generator: Adobe Illustrator 21.1.0, SVG Export Plug-In . SVG Version: 6.00 Build 0)  -->
<svg version="1.1" id="Layer_1" xmlns="http://www.w3.org/2000/svg" xmlns:xlink="http://www.w3.org/1999/xlink" x="0px" y="0px"
	 viewBox="0 0 66 82.5" style="enable-background:new 0 0 66 82.5;" xml:space="preserve">
<style type="text/css">
	.st0{fill:#0A72BA;}
	.st1{fill:#F99E1E;}
</style>
<g>
	<path class="st0" d="M62.4,16.4H33.8v-1.9c1.1-0.3,1.9-1.3,1.9-2.5c0-1.5-1.2-2.7-2.7-2.7c-1.5,0-2.7,1.2-2.7,2.7
		c0,1.2,0.8,2.2,1.9,2.5v1.9H3.6c-0.4,0-0.8,0.3-0.8,0.8v37.3c0,0.4,0.3,0.8,0.8,0.8h16L14,72.3c-0.2,0.5,0.2,1,0.7,1h4.2
		c0.3,0,0.6-0.2,0.7-0.5l2.1-6.4h22.6l2.1,6.4c0.1,0.3,0.4,0.5,0.7,0.5h4.2c0.5,0,0.9-0.5,0.7-1l-5.6-17.1h16c0.4,0,0.8-0.3,0.8-0.8
		V17.1C63.2,16.7,62.8,16.4,62.4,16.4z M31.8,11.9c0-0.6,0.5-1.2,1.2-1.2s1.2,0.5,1.2,1.2c0,0.6-0.5,1.2-1.2,1.2
		C32.4,13.1,31.8,12.6,31.8,11.9z M18.3,71.8h-2.6l5.4-16.6h2.6L18.3,71.8z M25.3,55.1h15.4l1.8,5.5H23.5L25.3,55.1z M22.2,64.8
		l0.9-2.7h19.9l0.9,2.7H22.2z M50.3,71.8h-2.6l-5.4-16.6h2.6L50.3,71.8z M61.7,53.6c-6.7,0-50.6,0-57.3,0V17.9h57.3V53.6z"/>
	<path class="st0" d="M48.2,41.3v-3.9h1.3c0.4,0,0.8-0.3,0.8-0.8v-4.1c0-0.4-0.3-0.8-0.8-0.8h-4.1c-0.4,0-0.8,0.3-0.8,0.8v1.3h-8.9
		v-1.3c0-0.4-0.3-0.8-0.8-0.8h-1.3v-4.5h-1.5v4.5H31c-0.4,0-0.8,0.3-0.8,0.8v1.3h-8.9v-1.3c0-0.4-0.3-0.8-0.8-0.8h-4.1
		c-0.4,0-0.8,0.3-0.8,0.8v4.1c0,0.4,0.3,0.8,0.8,0.8h1.3v3.9l1.5,0v-3.9h1.3c0.4,0,0.8-0.3,0.8-0.8v-1.3h8.9v1.3
		c0,0.4,0.3,0.8,0.8,0.8h1.3v3.9h1.5v-3.9H35c0.4,0,0.8-0.3,0.8-0.8v-1.3h8.9v1.3c0,0.4,0.3,0.8,0.8,0.8h1.3v3.9H48.2z M46.2,33.4
		h2.6v2.6h-2.6V33.4z M31.7,33.4h2.6v2.6h-2.6L31.7,33.4z M17.3,35.9v-2.6h2.6v2.6H17.3z"/>
	<path class="st1" d="M22.2,41.3h-7.2c-0.4,0-0.8,0.3-0.8,0.8v7.2c0,0.4,0.3,0.8,0.8,0.8h7.2c0.4,0,0.8-0.3,0.8-0.8v-7.2
		C22.9,41.6,22.6,41.3,22.2,41.3z M21.4,48.6h-5.7l0-5.7h5.7V48.6z"/>
	<path class="st1" d="M36.6,41.3h-7.2c-0.4,0-0.8,0.3-0.8,0.8v7.2c0,0.4,0.3,0.8,0.8,0.8h7.2c0.4,0,0.8-0.3,0.8-0.8v-7.2
		C37.4,41.6,37,41.3,36.6,41.3z M35.9,48.6h-5.7v-5.7h5.7V48.6z"/>
	<path class="st1" d="M51.1,41.3h-7.2c-0.4,0-0.8,0.3-0.8,0.8v7.2c0,0.4,0.3,0.8,0.8,0.8h7.2c0.4,0,0.8-0.3,0.8-0.8v-7.2
		C51.8,41.6,51.5,41.3,51.1,41.3z M50.3,48.6h-5.7v-5.7h5.7V48.6z"/>
	<path class="st1" d="M40,21.5H26c-0.4,0-0.8,0.3-0.8,0.8v4.3c0,0.4,0.3,0.8,0.8,0.8H40c0.4,0,0.8-0.3,0.8-0.8v-4.3
		C40.7,21.8,40.4,21.5,40,21.5z M39.2,25.8l-12.5,0V23h12.5V25.8z"/>
</g>
</svg>
