<?xml version="1.0" encoding="utf-8"?>
<!-- Generator: Adobe Illustrator 21.1.0, SVG Export Plug-In . SVG Version: 6.00 Build 0)  -->
<svg version="1.1" id="Layer_1" xmlns="http://www.w3.org/2000/svg" xmlns:xlink="http://www.w3.org/1999/xlink" x="0px" y="0px"
	 viewBox="0 0 66 82.5" style="enable-background:new 0 0 66 82.5;" xml:space="preserve">
<style type="text/css">
	.st0{fill:#0A72BA;}
	.st1{fill:#F99E1E;}
</style>
<g>
	<g>
		<path class="st0" d="M60.5,58.5h0.9V33.8c0-2.3-1.9-4.2-4.2-4.2H42.3c-2.3,0-4.2,1.9-4.2,4.2v24.7h0.9V36.1h21.4V58.5z M60.5,35.2
			H39.1v-1.4c0-1.8,1.5-3.3,3.3-3.3h14.9c1.8,0,3.3,1.5,3.3,3.3V35.2z"/>
	</g>
	<g>
		<path class="st0" d="M38.1,61.3v4.2c0,2.3,1.9,4.2,4.2,4.2h14.9c2.3,0,4.2-1.9,4.2-4.2v-4.2H38.1z M57.2,68.7H42.3
			c-1.8,0-3.3-1.5-3.3-3.3v-3.3h21.4v3.3C60.5,67.3,59,68.7,57.2,68.7z"/>
	</g>
	<g>
		<path class="st0" d="M48.1,65.9h3.3V65h-3.3V65.9z"/>
	</g>
	<g>
		<path class="st0" d="M25.5,12.8c-11.6,0-21,9.4-21,21s9.4,21,21,21c3.6,0,7.1-0.9,10.2-2.6l-0.5-0.8c-2.1,1.2-4.5,2-6.9,2.3
			l-1.4,0.2l1-1c1.4-1.4,3.4-3.6,5.1-6.6l0.2-0.4l0.4,0.1c0.5,0.2,1.1,0.4,1.6,0.7l0.4-0.8c-0.5-0.2-1-0.4-1.5-0.6L33.6,45l0.2-0.5
			c1.6-3.4,2.4-7,2.4-10.8c0-3.7-0.8-7.3-2.4-10.8l-0.2-0.5l0.5-0.2c2.5-1,4.3-2.1,5.1-2.7l0.3-0.2l0.3,0.3c2,2.1,3.6,4.5,4.6,7.2
			l0.9-0.3C42.3,18.4,34.4,12.8,25.5,12.8z M24.2,53.8l-1.4-0.2c-3.7-0.5-7.2-2.1-10-4.4l-0.5-0.4l0.5-0.3c1-0.7,2.6-1.6,4.8-2.4
			l0.4-0.1l0.2,0.4c1.7,3,3.7,5.3,5.1,6.6L24.2,53.8z M26,53.3v-8.8l0.5,0c1.8,0.1,3.5,0.4,5.2,0.8l0.6,0.2L32,46.1
			c-1.7,3-3.8,5.2-5.2,6.5L26,53.3z M25.1,53.3l-0.8-0.7c-1.4-1.3-3.4-3.5-5.2-6.5l-0.3-0.5l0.6-0.2c1.7-0.5,3.4-0.8,5.2-0.8l0.5,0
			V53.3z M11.6,48.1l-0.3-0.3c-3.5-3.5-5.5-8.2-5.7-13.1l0-0.5h9.3l0,0.4c0.1,3.4,0.9,6.7,2.4,9.8l0.2,0.5L17,45.2
			c-2.5,1-4.3,2.1-5.1,2.7L11.6,48.1z M32.7,44.7l-0.4-0.1c-1.9-0.6-3.9-0.9-5.9-1l-0.4,0v-9.3h9.3l0,0.5c-0.1,3.3-1,6.5-2.4,9.6
			L32.7,44.7z M18.4,44.7l-0.2-0.4c-1.5-3.1-2.3-6.3-2.4-9.6l0-0.5h9.3v9.3l-0.4,0c-2,0.1-4,0.4-5.9,1L18.4,44.7z M35.3,33.3H26V24
			l0.4,0c2-0.1,4-0.4,5.9-1l0.4-0.1l0.2,0.4c1.5,3.1,2.3,6.3,2.4,9.6L35.3,33.3z M25.1,33.3h-9.3l0-0.5c0.1-3.3,0.9-6.5,2.4-9.6
			l0.2-0.4l0.4,0.1c1.9,0.6,3.9,0.9,5.9,1l0.4,0V33.3z M14.8,33.3H5.5l0-0.5c0.2-4.9,2.3-9.6,5.7-13.1l0.3-0.3l0.3,0.2
			c0.8,0.6,2.6,1.7,5.1,2.7l0.5,0.2L17.2,23c-1.5,3.1-2.3,6.4-2.4,9.8L14.8,33.3z M26,23.1v-8.8l0.8,0.7c1.4,1.3,3.4,3.5,5.2,6.5
			l0.3,0.5l-0.6,0.2c-1.7,0.5-3.4,0.8-5.2,0.8L26,23.1z M25.1,23.1l-0.5,0c-1.7-0.1-3.5-0.4-5.2-0.8L18.8,22l0.3-0.5
			c1.7-3,3.8-5.2,5.2-6.5l0.8-0.7V23.1z M33.2,21.7L33,21.4c-1.7-3-3.7-5.3-5.1-6.6l-1-1l1.4,0.2c3.7,0.5,7.2,2.1,10.1,4.5l0.5,0.4
			l-0.5,0.3c-1,0.7-2.6,1.6-4.8,2.4L33.2,21.7z M17.9,21.7l-0.4-0.1c-2.2-0.8-3.8-1.8-4.8-2.4l-0.5-0.3l0.5-0.4
			c2.9-2.4,6.3-3.9,10-4.4l1.4-0.2l-1,1c-1.4,1.3-3.4,3.6-5.1,6.6L17.9,21.7z"/>
	</g>
	<g>
		<path class="st1" d="M41.9,58.5h15.8v-0.9h-1.9V38.9h-0.9v18.6h-2.8V45.4h-0.9v12.1h-2.8v-14h-0.9v14h-2.8v-8.4h-0.9v8.4h-1.9
			V58.5z"/>
	</g>
</g>
</svg>
