<?xml version="1.0" encoding="utf-8"?>
<!-- Generator: Adobe Illustrator 21.1.0, SVG Export Plug-In . SVG Version: 6.00 Build 0)  -->
<svg version="1.1" id="Layer_1" xmlns="http://www.w3.org/2000/svg" xmlns:xlink="http://www.w3.org/1999/xlink" x="0px" y="0px"
	 viewBox="0 0 66 82.5" style="enable-background:new 0 0 66 82.5;" xml:space="preserve">
<style type="text/css">
	.st0{fill:#0A72BA;}
	.st1{fill:#F99E1E;}
</style>
<g>
	<path class="st0" d="M14.4,20.5c-0.1,0-0.3,0.1-0.4,0.2l-9.6,9.6c-0.2,0.2-0.2,0.5,0,0.7l4.1,4.1l5.5,5.5c0,0.1,0,0.2-0.1,0.2
		c-0.1,0.3,0.1,0.6,0.4,0.6c0,0,0.1,0,0.1,0c0.1,0,0.2,0,0.3-0.1l3.8,3.8c0.1,0.1,0.2,0.2,0.4,0.2s0.3-0.1,0.4-0.2l0.4-0.4l0.8,0.8
		c-0.3,0.6-0.2,1.3,0.3,1.8l2.6,2.6c-0.8,0.8-0.8,2.2,0,3c0.4,0.4,0.9,0.6,1.5,0.6c0,0,0.1,0,0.1,0c0,0,0,0.1,0,0.1
		c0,0.6,0.2,1.1,0.6,1.5c0.4,0.4,0.9,0.6,1.5,0.6c0,0,0.1,0,0.1,0c0,0.6,0.2,1.2,0.6,1.6c0.4,0.4,0.9,0.6,1.5,0.6c0,0,0.1,0,0.1,0
		c0,0.6,0.2,1.2,0.6,1.6c0.4,0.4,0.9,0.6,1.5,0.6c0.5,0,1.1-0.2,1.5-0.6c0.4,0.4,0.9,0.6,1.5,0.6s1.1-0.2,1.5-0.6
		c0.4-0.4,0.6-1,0.6-1.6c0,0,0.1,0,0.1,0c0.5,0,1.1-0.2,1.5-0.6c0.4-0.4,0.6-0.9,0.6-1.5c0,0,0-0.1,0-0.1c0,0,0.1,0,0.1,0
		c0.6,0,1.1-0.2,1.5-0.6c0.4-0.4,0.6-0.9,0.6-1.5c0,0,0-0.1,0-0.1c0,0,0.1,0,0.1,0c0.5,0,1.1-0.2,1.5-0.6c0.4-0.4,0.6-0.9,0.6-1.5
		c0-0.6-0.2-1.1-0.6-1.5l1.9-1.9c0.5-0.5,0.6-1.2,0.3-1.8l1.6-1.6l0.4,0.4c0.1,0.1,0.2,0.2,0.4,0.2c0.1,0,0.3,0,0.4-0.2l3.8-3.8
		c0.1,0.1,0.2,0.1,0.3,0.1c0,0,0.1,0,0.1,0c0.3-0.1,0.5-0.3,0.4-0.6c0-0.1,0-0.2-0.1-0.2l5.5-5.5l4.1-4.1c0.2-0.2,0.2-0.5,0-0.7
		l-9.6-9.6c-0.2-0.2-0.5-0.2-0.7,0l-4.1,4.1l-3.5,3.6l-0.1-0.1c-0.2-0.2-0.6-0.1-0.7,0.2c-0.1,0.2-0.1,0.5,0.1,0.6l-1.3,1.3
		l-4.5,4.5c-0.2,0.2-0.2,0.5,0,0.7l0.4,0.4l-0.4,0.4L36,37.4l-0.2,0.2h-2.5L32.6,37c-0.1-0.1-0.2-0.2-0.4-0.2h-2.8l-1-1l0.4-0.4
		c0.2-0.2,0.2-0.5,0-0.7l-4.5-4.5l-1.3-1.3c0.2-0.2,0.2-0.4,0.1-0.6c-0.2-0.2-0.5-0.3-0.7-0.2c0,0-0.1,0-0.1,0.1l-3.5-3.5l-4.1-4.1
		C14.7,20.6,14.6,20.5,14.4,20.5z M14.4,21.8l3.7,3.7l5.2,5.2l-8.9,8.9l-5.2-5.2l-3.7-3.7L14.4,21.8z M51.5,21.8l8.9,8.9l-3.7,3.7
		l-5.2,5.2l-8.9-8.9l5.2-5.2L51.5,21.8z M24.1,31.5l3.7,3.7l-0.3,0.3c0,0-0.1,0-0.1,0.1l-8.2,8.2c0,0,0,0.1-0.1,0.1l-0.3,0.3
		l-3.7-3.7L24.1,31.5z M41.9,31.5l8.9,8.9l-3.7,3.7l-0.3-0.3c0,0,0-0.1-0.1-0.1l-8.2-8.2c0,0-0.1,0-0.1-0.1l-0.3-0.3L41.9,31.5z
		 M38.2,36.7l7.4,7.4l-1.8,1.8c0,0,0,0,0,0c0,0,0,0,0,0c-0.2,0.2-0.2,0.5,0,0.7c0.2,0.2,0.2,0.5,0,0.7l-1.9,1.9l-7.4-7.4l0.4-0.4
		c0.2-0.2,0.2-0.5,0-0.7c-0.2-0.2-0.5-0.2-0.7,0l-0.7,0.7L31.9,43c-0.9,0.9-2.3,1-3.3,0.3l4.6-4.6H36c0.1,0,0.3-0.1,0.4-0.2l0,0
		L38.2,36.7z M27.8,36.7l1.1,1.1c0.1,0.1,0.2,0.2,0.4,0.2H32l0.2,0.2l-4.7,4.7c0,0-0.1,0-0.1,0.1c-0.2,0.2-0.2,0.5,0,0.7
		c0,0,0,0,0,0c0,0,0,0,0,0c0,0,0,0,0,0c0.7,0.7,1.6,1,2.6,1c0.9,0,1.9-0.4,2.6-1.1l1.1-1.1l8.2,8.2c0.2,0.2,0.3,0.5,0.3,0.7
		c0,0.3-0.1,0.5-0.3,0.7c-0.4,0.4-1.1,0.4-1.5,0l-2.6-2.6l-0.7-0.7c-0.2-0.2-0.5-0.2-0.7,0c-0.2,0.2-0.2,0.5,0,0.7l3.4,3.4
		c0.2,0.2,0.3,0.5,0.3,0.7s-0.1,0.5-0.3,0.7c-0.4,0.4-1.1,0.4-1.5,0l-2.6-2.6l-0.7-0.7c-0.2-0.2-0.5-0.2-0.7,0
		c-0.2,0.2-0.2,0.5,0,0.7l0.7,0.7l2.6,2.6c0.4,0.4,0.4,1.1,0,1.5c-0.4,0.4-1.1,0.4-1.5,0l-2.6-2.6l-0.7-0.7c-0.2-0.2-0.5-0.2-0.7,0
		c-0.2,0.2-0.2,0.5,0,0.7l0.7,0.7l2.6,2.6c0.4,0.4,0.4,1.1,0,1.5c-0.4,0.4-1.1,0.4-1.5,0l-1.9-1.9l-0.7-0.7l0,0l0,0l-9.6-9.6
		c-0.2-0.2-0.2-0.5,0-0.7c0.2-0.2,0.2-0.5,0-0.7c0,0,0,0,0,0c0,0,0,0,0,0l-1.1-1.1L27.8,36.7z M24.1,50.8l1.5,1.5
		c-0.4,0.4-1.1,0.4-1.5,0c-0.2-0.2-0.3-0.5-0.3-0.7C23.8,51.2,23.9,51,24.1,50.8z M26.3,53l1.5,1.5c-0.4,0.4-1.1,0.4-1.5,0
		C26.1,54.3,26,54,26,53.7C26,53.4,26.1,53.2,26.3,53z M28.5,55.2l1.5,1.5c-0.4,0.4-1.1,0.4-1.5,0C28.1,56.3,28.1,55.6,28.5,55.2z
		 M30.8,57.4l0.4,0.4l1.1,1.1c-0.4,0.4-1.1,0.4-1.5,0C30.4,58.5,30.4,57.8,30.8,57.4z"/>
	<path class="st1" d="M31.9,25.2c-0.4,0-0.7,0.1-1.1,0.1c-0.3,0-0.5,0.3-0.5,0.6c0,0.3,0.3,0.5,0.5,0.5c0,0,0,0,0.1,0
		c0.3,0,0.7-0.1,1-0.1c0.3,0,0.5-0.3,0.5-0.6C32.4,25.4,32.2,25.2,31.9,25.2z"/>
	<path class="st1" d="M34.1,25.2c-0.3,0-0.5,0.2-0.6,0.5c0,0.3,0.2,0.5,0.5,0.6c0.3,0,0.7,0.1,1,0.1c0,0,0,0,0.1,0
		c0.3,0,0.5-0.2,0.5-0.5c0-0.3-0.2-0.5-0.5-0.6C34.8,25.3,34.5,25.2,34.1,25.2z"/>
	<path class="st1" d="M28.8,25.7c-0.1,0-0.1,0-0.2,0c-0.4,0.1-0.7,0.2-1.1,0.3c-0.3,0.1-0.4,0.4-0.4,0.7c0.1,0.2,0.3,0.4,0.5,0.4
		c0,0,0.1,0,0.1,0c0.3-0.1,0.7-0.2,1-0.3c0.3-0.1,0.5-0.3,0.4-0.6C29.2,25.9,29,25.7,28.8,25.7z"/>
	<path class="st1" d="M37.2,25.7c-0.2,0-0.4,0.2-0.4,0.4c-0.1,0.3,0.1,0.6,0.4,0.6c0.3,0.1,0.7,0.2,1,0.3c0,0,0.1,0,0.1,0
		c0.2,0,0.4-0.1,0.5-0.4c0.1-0.3-0.1-0.6-0.4-0.7c-0.4-0.1-0.7-0.2-1.1-0.3C37.3,25.7,37.2,25.7,37.2,25.7z"/>
	<path class="st1" d="M25.7,26.7c-0.1,0-0.1,0-0.2,0c-0.3,0.1-0.7,0.3-1,0.5c-0.3,0.1-0.4,0.4-0.2,0.7c0.1,0.2,0.3,0.3,0.5,0.3
		c0.1,0,0.2,0,0.2-0.1c0.3-0.2,0.6-0.3,1-0.4c0.3-0.1,0.4-0.4,0.3-0.7C26.1,26.8,25.9,26.7,25.7,26.7z"/>
	<path class="st1" d="M40.3,26.7c-0.2,0-0.4,0.1-0.5,0.3c-0.1,0.3,0,0.6,0.3,0.7c0.3,0.1,0.6,0.3,0.9,0.4c0.1,0,0.2,0.1,0.2,0.1
		c0.2,0,0.4-0.1,0.5-0.3c0.1-0.3,0-0.6-0.2-0.7c-0.3-0.2-0.7-0.3-1-0.5C40.5,26.7,40.4,26.7,40.3,26.7z"/>
	<path class="st1" d="M14.2,42.6c-0.3,0-0.5,0.2-0.6,0.5c0,0.4-0.1,0.7-0.1,1.1c0,0.3,0.2,0.5,0.5,0.5h0c0.3,0,0.5-0.2,0.5-0.5
		c0-0.3,0-0.7,0.1-1C14.7,42.9,14.5,42.6,14.2,42.6z"/>
	<path class="st1" d="M51.8,42.6c-0.3,0-0.5,0.3-0.5,0.6c0,0.3,0,0.6,0,0.9l0.5,0.1l-0.5,0c0,0.3,0.2,0.5,0.5,0.5h0
		c0.3,0,0.5-0.2,0.5-0.5l0-0.1c0-0.3,0-0.7-0.1-1C52.3,42.8,52.1,42.6,51.8,42.6z"/>
	<path class="st1" d="M14.1,45.8c-0.3,0-0.5,0.3-0.5,0.6c0,0.4,0.1,0.7,0.1,1.1c0,0.3,0.3,0.4,0.5,0.4c0,0,0.1,0,0.1,0
		c0.3,0,0.5-0.3,0.4-0.6c-0.1-0.3-0.1-0.7-0.1-1C14.7,46,14.4,45.8,14.1,45.8z"/>
	<path class="st1" d="M51.8,45.9c-0.3,0-0.5,0.2-0.6,0.5c0,0.3-0.1,0.7-0.1,1c0,0.3,0.2,0.6,0.4,0.6c0,0,0.1,0,0.1,0
		c0.3,0,0.5-0.2,0.5-0.4c0.1-0.4,0.1-0.7,0.1-1.1C52.3,46.1,52.1,45.9,51.8,45.9z"/>
	<path class="st1" d="M14.8,49c-0.1,0-0.1,0-0.2,0c-0.3,0.1-0.4,0.4-0.4,0.6c0.1,0.4,0.2,0.7,0.3,1.1c0.1,0.2,0.3,0.4,0.5,0.4
		c0.1,0,0.1,0,0.2,0c0.3-0.1,0.4-0.4,0.3-0.7c-0.1-0.3-0.2-0.7-0.3-1C15.2,49.2,15,49,14.8,49z"/>
	<path class="st1" d="M51.2,49c-0.2,0-0.4,0.2-0.4,0.4c-0.1,0.3-0.2,0.7-0.3,1c-0.1,0.3,0.1,0.6,0.3,0.7c0.1,0,0.1,0,0.2,0
		c0.2,0,0.4-0.1,0.5-0.4c0.1-0.3,0.2-0.7,0.3-1.1c0.1-0.3-0.1-0.6-0.4-0.6C51.3,49,51.2,49,51.2,49z"/>
	<path class="st1" d="M15.8,52c-0.1,0-0.1,0-0.2,0c-0.3,0.1-0.4,0.4-0.3,0.7c0.2,0.3,0.3,0.7,0.5,1c0.1,0.2,0.3,0.3,0.5,0.3
		c0.1,0,0.2,0,0.2-0.1c0.3-0.1,0.4-0.5,0.2-0.7c-0.2-0.3-0.3-0.6-0.5-0.9C16.2,52.1,16,52,15.8,52z"/>
	<path class="st1" d="M50.1,52.1c-0.2,0-0.4,0.1-0.5,0.3c-0.1,0.3-0.3,0.6-0.5,0.9c-0.1,0.3,0,0.6,0.2,0.7c0.1,0,0.2,0.1,0.2,0.1
		c0.2,0,0.4-0.1,0.5-0.3c0.2-0.3,0.3-0.7,0.5-1c0.1-0.3,0-0.6-0.3-0.7C50.3,52.1,50.2,52.1,50.1,52.1z"/>
	<path class="st1" d="M17.5,54.8c-0.1,0-0.3,0-0.4,0.1c-0.2,0.2-0.3,0.5-0.1,0.7c0.2,0.3,0.4,0.6,0.7,0.9c0.1,0.1,0.3,0.2,0.4,0.2
		c0.1,0,0.2,0,0.3-0.1c0.2-0.2,0.3-0.5,0.1-0.7c-0.2-0.3-0.4-0.6-0.6-0.8C17.8,54.9,17.7,54.9,17.5,54.8z"/>
	<path class="st1" d="M48.4,54.8c-0.1,0-0.3,0.1-0.3,0.2c-0.2,0.3-0.4,0.6-0.6,0.8c-0.2,0.2-0.1,0.6,0.1,0.7
		c0.1,0.1,0.2,0.1,0.3,0.1c0.2,0,0.3-0.1,0.4-0.2c0.2-0.3,0.4-0.6,0.7-0.9c0.2-0.2,0.1-0.6-0.1-0.7C48.7,54.8,48.6,54.8,48.4,54.8z"
		/>
	<path class="st1" d="M19.5,57.3c-0.1,0-0.3,0-0.4,0.1c-0.2,0.2-0.2,0.5,0,0.7c0.3,0.3,0.5,0.5,0.8,0.8c0.1,0.1,0.2,0.1,0.4,0.1
		c0.1,0,0.3-0.1,0.4-0.2c0.2-0.2,0.2-0.5,0-0.7c-0.3-0.2-0.5-0.5-0.8-0.7C19.8,57.4,19.6,57.3,19.5,57.3z"/>
	<path class="st1" d="M46.5,57.3c-0.1,0-0.3,0.1-0.4,0.2c-0.2,0.2-0.5,0.5-0.8,0.7c-0.2,0.2-0.2,0.5,0,0.7c0.1,0.1,0.2,0.2,0.4,0.2
		c0.1,0,0.3,0,0.4-0.1c0.3-0.2,0.5-0.5,0.8-0.8c0.2-0.2,0.2-0.5,0-0.7C46.7,57.4,46.6,57.3,46.5,57.3z"/>
	<path class="st1" d="M21.8,59.4c-0.1,0-0.3,0.1-0.3,0.2c-0.2,0.2-0.1,0.6,0.1,0.7c0.3,0.2,0.6,0.4,0.9,0.6c0.1,0.1,0.2,0.1,0.3,0.1
		c0.2,0,0.3-0.1,0.4-0.2c0.2-0.2,0.1-0.6-0.2-0.7c-0.3-0.2-0.6-0.4-0.9-0.6C22.1,59.4,22,59.4,21.8,59.4z"/>
	<path class="st1" d="M44.1,59.4c-0.1,0-0.3,0-0.4,0.1c-0.3,0.2-0.6,0.4-0.9,0.6c-0.2,0.2-0.3,0.5-0.2,0.7c0.1,0.2,0.3,0.2,0.4,0.2
		c0.1,0,0.2,0,0.3-0.1c0.3-0.2,0.6-0.4,0.9-0.6c0.2-0.2,0.3-0.5,0.1-0.7C44.4,59.5,44.3,59.4,44.1,59.4z"/>
	<path class="st1" d="M24.7,61.1c-0.2,0-0.4,0.1-0.5,0.3c-0.1,0.3,0,0.6,0.2,0.7c0.3,0.2,0.7,0.3,1,0.5c0.1,0,0.1,0,0.2,0
		c0.2,0,0.4-0.1,0.5-0.3c0.1-0.3,0-0.6-0.3-0.7c-0.3-0.1-0.6-0.3-0.9-0.4C24.8,61.1,24.8,61.1,24.7,61.1z"/>
	<path class="st1" d="M41.2,61.1c-0.1,0-0.1,0-0.2,0.1c-0.3,0.2-0.6,0.3-1,0.4c-0.3,0.1-0.4,0.4-0.3,0.7c0.1,0.2,0.3,0.3,0.5,0.3
		c0.1,0,0.1,0,0.2,0c0.3-0.1,0.7-0.3,1-0.5c0.3-0.1,0.4-0.4,0.2-0.7C41.7,61.2,41.4,61.1,41.2,61.1z"/>
	<path class="st1" d="M27.6,62.2c-0.2,0-0.4,0.2-0.4,0.4c-0.1,0.3,0.1,0.6,0.4,0.6c0.4,0.1,0.7,0.2,1.1,0.3c0,0,0.1,0,0.1,0
		c0.2,0,0.5-0.2,0.5-0.4c0.1-0.3-0.1-0.6-0.4-0.6c-0.3-0.1-0.7-0.2-1-0.3C27.8,62.2,27.7,62.2,27.6,62.2z"/>
	<path class="st1" d="M38.3,62.2c-0.1,0-0.1,0-0.2,0c-0.3,0.1-0.7,0.2-1,0.3c-0.3,0.1-0.5,0.3-0.4,0.6c0.1,0.2,0.3,0.4,0.5,0.4
		c0,0,0.1,0,0.1,0c0.4-0.1,0.7-0.2,1.1-0.3c0.3-0.1,0.4-0.4,0.4-0.6C38.7,62.4,38.5,62.3,38.3,62.2z"/>
	<path class="st1" d="M30.9,62.9c-0.3,0-0.5,0.2-0.6,0.5c0,0.3,0.2,0.5,0.5,0.6c0.4,0,0.7,0.1,1.1,0.1c0,0,0,0,0,0
		c0.3,0,0.5-0.2,0.5-0.5c0-0.3-0.2-0.5-0.5-0.6C31.6,62.9,31.2,62.9,30.9,62.9z"/>
	<path class="st1" d="M35.1,62.9c-0.3,0-0.7,0.1-1,0.1c-0.3,0-0.5,0.3-0.5,0.6c0,0.3,0.2,0.5,0.5,0.5c0,0,0,0,0,0
		c0.4,0,0.7,0,1.1-0.1c0.3,0,0.5-0.3,0.5-0.6C35.6,63,35.3,62.8,35.1,62.9z"/>
	<path class="st0" d="M20,39.2c-0.3-0.3-0.7-0.4-1.1-0.4c-0.4,0-0.8,0.1-1.1,0.4c-0.6,0.6-0.6,1.6,0,2.2c0.3,0.3,0.7,0.5,1.1,0.5
		c0.4,0,0.8-0.2,1.1-0.5C20.6,40.8,20.6,39.8,20,39.2z M19.2,40.7c-0.2,0.2-0.5,0.2-0.7,0c-0.2-0.2-0.2-0.5,0-0.7
		c0.1-0.1,0.2-0.2,0.4-0.2c0.1,0,0.3,0.1,0.4,0.2C19.4,40.2,19.4,40.5,19.2,40.7z"/>
	<path class="st0" d="M48.2,39.2c-0.3-0.3-0.7-0.4-1.1-0.4c-0.4,0-0.8,0.1-1.1,0.4c-0.6,0.6-0.6,1.6,0,2.2c0.3,0.3,0.7,0.5,1.1,0.5
		c0.4,0,0.8-0.2,1.1-0.5C48.8,40.8,48.8,39.8,48.2,39.2z M47.5,40.7c-0.2,0.2-0.5,0.2-0.7,0c-0.2-0.2-0.2-0.5,0-0.7
		c0.1-0.1,0.2-0.2,0.4-0.2s0.3,0.1,0.4,0.2C47.7,40.2,47.7,40.5,47.5,40.7z"/>
</g>
</svg>
