<?xml version="1.0" encoding="utf-8"?>
<!-- Generator: Adobe Illustrator 21.1.0, SVG Export Plug-In . SVG Version: 6.00 Build 0)  -->
<svg version="1.1" id="Layer_1" xmlns="http://www.w3.org/2000/svg" xmlns:xlink="http://www.w3.org/1999/xlink" x="0px" y="0px"
	 viewBox="0 0 66 82.5" style="enable-background:new 0 0 66 82.5;" xml:space="preserve">
<style type="text/css">
	.st0{fill:#0072BC;}
	.st1{fill:#F89E20;}
</style>
<g>
	<path class="st0" d="M33,52.4c0.2,0,0.3,0,0.4,0.1l3.7,1.8c0.5,0.2,1,0.4,1.6,0.4c1.4,0,2.6-0.8,3.3-2l1.9-3.6
		c0.1-0.2,0.4-0.4,0.6-0.5l4.1-0.7c1.9-0.3,3.3-2.2,3-4.2L51,39.7c0-0.2,0.1-0.6,0.2-0.8l2.9-3c1.4-1.4,1.4-3.7,0-5.2l-2.9-3
		c-0.1-0.1-0.3-0.5-0.2-0.8l0.6-4.1c0.3-2-1.1-3.8-3-4.2l-4.1-0.7c-0.2,0-0.5-0.3-0.6-0.5L42,14c-0.6-1.2-1.9-2-3.3-2
		c-0.6,0-1.1,0.1-1.6,0.4l-3.7,1.8c-0.1,0-0.2,0.1-0.4,0.1c-0.2,0-0.3,0-0.4-0.1l-3.7-1.8c-0.5-0.2-1-0.4-1.6-0.4
		c-1.4,0-2.6,0.8-3.3,2L22,17.6c-0.1,0.2-0.4,0.4-0.6,0.5l-4.1,0.7c-1.9,0.3-3.3,2.2-3,4.2l0.6,4.1c0,0.2-0.1,0.6-0.2,0.8l-2.9,3
		c-1.4,1.4-1.4,3.7,0,5.2l2.9,3c0.1,0.1,0.3,0.6,0.2,0.8l-0.6,4.1c-0.3,2,1.1,3.8,3,4.2l4.1,0.7c0.2,0,0.5,0.3,0.6,0.5l1.9,3.6
		c0.6,1.2,1.9,2,3.3,2c0.6,0,1.1-0.1,1.6-0.4l3.7-1.8C32.6,52.5,32.8,52.4,33,52.4z M28,52.7c-0.2,0.1-0.5,0.2-0.8,0.2
		c-0.7,0-1.3-0.4-1.7-1l-1.9-3.6c-0.4-0.7-1.2-1.3-2-1.4l-4.1-0.7c-1-0.2-1.7-1.1-1.5-2.1l0.6-4.1c0.1-0.8-0.2-1.7-0.7-2.3l-2.9-3
		c-0.7-0.7-0.7-1.9,0-2.6l2.9-3c0.5-0.6,0.9-1.5,0.8-2.3l-0.6-4.1c-0.1-1,0.5-1.9,1.5-2.1l4.1-0.7c0.8-0.1,1.6-0.7,2-1.4l1.9-3.6
		c0.4-0.8,1.6-1.2,2.4-0.8l3.7,1.8c0.4,0.2,0.9,0.3,1.2,0.3c0.3,0,0.8,0,1.2-0.3l3.7-1.8c0.2-0.1,0.5-0.2,0.8-0.2
		c0.7,0,1.3,0.4,1.7,1l1.9,3.6c0.4,0.7,1.2,1.3,2,1.4l4.1,0.7c1,0.2,1.7,1.1,1.5,2.1l-0.6,4.1c-0.1,0.8,0.2,1.7,0.7,2.3l2.9,3
		c0.7,0.7,0.7,1.9,0,2.6l-2.9,3c-0.5,0.6-0.9,1.5-0.7,2.3l0.6,4.1c0.1,1-0.5,1.9-1.5,2.1l-4.1,0.7c-0.8,0.1-1.6,0.7-2,1.4l-1.9,3.6
		c-0.4,0.8-1.6,1.2-2.4,0.8l-3.7-1.8c-0.4-0.2-0.9-0.3-1.2-0.3c-0.3,0-0.8,0-1.2,0.3L28,52.7z"/>
	<path class="st0" d="M39.4,45.2c2.6-1.4,4.4-3.2,5.8-6c0.6-1.3,1-2.3,1.2-3.9c0.6-3.5-0.4-7.3-2.7-10.4c-0.4-0.6-0.8-0.9-1.2-1.3
		c-0.1-0.1-0.2-0.2-0.4-0.4c-2.3-2.1-5.6-3.5-8.5-3.5c-3.3,0-4.9,0.4-7.6,1.9c-1.7,1-3.3,2.6-4.3,4.1c-1,1.5-1.6,3.1-1.9,4.7
		c-0.6,2.8-0.3,5.8,0.9,8.3c0.1,0.2,0.2,0.4,0.3,0.6l0.1,0.1c0.1,0.1,0.1,0.2,0.2,0.4c1,1.9,3.3,4.3,5,5.1c0.3,0.1,0.5,0.3,0.7,0.4
		c0.8,0.4,1.4,0.8,2.9,1.1l0.2,0c0.8,0.2,1.9,0.4,2.8,0.4h0c1.9,0,4.1-0.4,5.6-1.2L39.4,45.2z M32.8,45.4L32.8,45.4
		c-0.8,0-1.8-0.2-2.5-0.4l-0.2,0c-1.3-0.3-1.8-0.5-2.5-0.9c-0.2-0.1-0.5-0.2-0.7-0.4c-1.5-0.7-3.6-2.9-4.4-4.5
		c-0.1-0.2-0.2-0.3-0.3-0.5l0-0.1c-0.1-0.1-0.1-0.3-0.2-0.5c-1-2.2-1.3-4.9-0.8-7.4c0.3-1.5,0.9-2.9,1.7-4.2
		c0.9-1.4,2.4-2.8,3.8-3.6c2.4-1.4,3.8-1.7,6.9-1.7c2.6,0,5.4,1.2,7.4,3.1c0.1,0.1,0.3,0.3,0.4,0.4c0.4,0.4,0.7,0.7,1,1.1
		c2.1,2.8,3,6.1,2.4,9.2c-0.2,1.4-0.5,2.3-1.1,3.4c-1.3,2.5-2.8,4.1-5.1,5.3l-1,0.5C36.5,45,34.5,45.4,32.8,45.4z"/>
	<path class="st1" d="M38.7,40.5l-1.8-5.6l4.7-3.4c0.2-0.2,0.3-0.4,0.2-0.7c-0.1-0.3-0.3-0.4-0.6-0.4h-5.9l-1.8-5.6
		c-0.1-0.3-0.3-0.4-0.6-0.4s-0.5,0.2-0.6,0.4l-1.8,5.6h-5.9c-0.3,0-0.5,0.2-0.6,0.4c-0.1,0.3,0,0.5,0.2,0.7l4.7,3.4l-1.8,5.6
		c-0.1,0.3,0,0.5,0.2,0.7c0.1,0.1,0.2,0.1,0.4,0.1c0.1,0,0.3,0,0.4-0.1l4.7-3.5l4.7,3.5c0.2,0.2,0.5,0.2,0.7,0
		C38.7,41,38.8,40.7,38.7,40.5z M33.4,36.4c-0.2-0.2-0.5-0.2-0.7,0L29.1,39l1.4-4.2c0.1-0.3,0-0.5-0.2-0.7l-3.6-2.6h4.4
		c0.3,0,0.5-0.2,0.6-0.4L33,27l1.4,4.2c0.1,0.3,0.3,0.4,0.6,0.4h4.4l-3.6,2.6c-0.2,0.2-0.3,0.4-0.2,0.7l1.4,4.2L33.4,36.4z"/>
	<path class="st0" d="M52,70.2c0.1,0.2,0.4,0.3,0.6,0.3c0,0,0.1,0,0.1,0c0.3-0.1,0.5-0.3,0.6-0.5l2.2-8.1l8.3,0.5
		c0.3,0,0.6-0.1,0.7-0.4c0.1-0.2,0.1-0.6,0-0.8l-10.8-15c-0.2-0.3-0.7-0.4-1-0.2c-0.3,0.2-0.4,0.7-0.2,1l9.9,13.8L55,60.3
		c-0.3,0-0.7,0.2-0.8,0.5L52.3,68l-9.3-13c-0.2-0.3-0.7-0.4-1-0.2c-0.3,0.2-0.4,0.7-0.2,1L52,70.2z"/>
	<path class="st0" d="M13.3,46c-0.3-0.2-0.8-0.2-1,0.2l-10.8,15c-0.2,0.2-0.2,0.5,0,0.8c0.1,0.3,0.4,0.4,0.7,0.4l8.3-0.5l2.2,8.1
		c0.1,0.3,0.3,0.5,0.6,0.5c0,0,0.1,0,0.1,0c0.2,0,0.5-0.1,0.6-0.3l10.3-14.2c0.2-0.3,0.2-0.8-0.2-1c-0.3-0.2-0.8-0.2-1,0.2l-9.3,13
		l-1.9-7.1c-0.1-0.3-0.4-0.6-0.8-0.5l-7.4,0.4L13.5,47C13.8,46.7,13.7,46.2,13.3,46z"/>
</g>
</svg>
