<?xml version="1.0" encoding="utf-8"?>
<!-- Generator: Adobe Illustrator 21.1.0, SVG Export Plug-In . SVG Version: 6.00 Build 0)  -->
<svg version="1.1" id="Layer_1" xmlns="http://www.w3.org/2000/svg" xmlns:xlink="http://www.w3.org/1999/xlink" x="0px" y="0px"
	 viewBox="0 0 66 82.5" style="enable-background:new 0 0 66 82.5;" xml:space="preserve">
<style type="text/css">
	.st0{fill:#F99D1C;}
</style>
<g>
	<path class="st0" d="M55.3,40c4,0,7.2-3.2,7.2-7.2c0-4-3.2-7.2-7.2-7.2S48,28.8,48,32.8c0,0.4,0,0.9,0.1,1.3L41.7,37
		c-2-3-5.3-5-9.2-5c-1.3,0-2.5,0.2-3.7,0.7l-4.1-7.5c1.4-1.3,2.3-3.2,2.3-5.3c0-4-3.2-7.2-7.2-7.2c-4,0-7.2,3.2-7.2,7.2
		s3.2,7.2,7.2,7.2c0.6,0,1.3-0.1,1.8-0.2l4.1,7.5c-2.6,2-4.2,5.1-4.2,8.6c0,2.2,0.6,4.2,1.8,5.9l-8.5,7.7c-1.2-0.8-2.5-1.2-4-1.2
		c-4,0-7.2,3.2-7.2,7.2s3.2,7.2,7.2,7.2c4,0,7.2-3.2,7.2-7.2c0-1.2-0.3-2.4-0.9-3.4l8.5-7.7c1.9,1.5,4.3,2.4,6.9,2.4
		c2.9,0,5.6-1.2,7.6-3.1l2.9,2.5c-0.7,1.3-1,2.9-0.7,4.4c0.6,3.9,4.3,6.6,8.3,6c3.9-0.6,6.6-4.3,6-8.3c-0.6-3.9-4.3-6.6-8.3-6
		c-1.1,0.2-2.1,0.6-3,1.2l-3.1-2.7c0.8-1.5,1.3-3.3,1.3-5.1c0-1-0.1-1.9-0.4-2.8l6.5-2.9C50.9,38.9,53,40,55.3,40z M16,19.9
		c0-2.1,1.7-3.7,3.7-3.7c2.1,0,3.7,1.7,3.7,3.7s-1.7,3.7-3.7,3.7C17.7,23.6,16,21.9,16,19.9z M10.7,66.4c-2.1,0-3.7-1.7-3.7-3.7
		c0-2.1,1.7-3.7,3.7-3.7c2.1,0,3.7,1.7,3.7,3.7C14.5,64.7,12.8,66.4,10.7,66.4z M32.5,50.5c-4.1,0-7.5-3.4-7.5-7.5
		c0-4.1,3.4-7.5,7.5-7.5c4.1,0,7.5,3.4,7.5,7.5C40,47.1,36.6,50.5,32.5,50.5z M48.8,53.1c2-0.3,4,1.1,4.3,3.1c0.3,2-1.1,4-3.1,4.3
		c-2,0.3-4-1.1-4.3-3.1C45.4,55.3,46.8,53.4,48.8,53.1z M55.3,29.1c2.1,0,3.7,1.7,3.7,3.7c0,2.1-1.7,3.7-3.7,3.7s-3.7-1.7-3.7-3.7
		C51.5,30.7,53.2,29.1,55.3,29.1z"/>
</g>
</svg>
