<?xml version="1.0" encoding="utf-8"?>
<!-- Generator: Adobe Illustrator 21.1.0, SVG Export Plug-In . SVG Version: 6.00 Build 0)  -->
<svg version="1.1" id="Layer_1" xmlns="http://www.w3.org/2000/svg" xmlns:xlink="http://www.w3.org/1999/xlink" x="0px" y="0px"
	 viewBox="0 0 66 82.5" style="enable-background:new 0 0 66 82.5;" xml:space="preserve">
<style type="text/css">
	.st0{fill:#F99D1C;}
	.st1{fill:#FFFFFF;}
</style>
<g>
	<g>
		<g>
			<path class="st0" d="M58.3,54.7c-0.8-1.5-2.7-2.1-4.3-1.2L45,58.9c-1,0.6-1.5,1.6-1.5,2.7c0,1.7,1.4,3.1,3.2,3.1
				c0.6,0,1.1-0.2,1.6-0.4l9.1-5.4C58.7,57.9,59.1,56.1,58.3,54.7z M56.3,57.2l-9.1,5.5c-0.6,0.3-1.3,0.1-1.6-0.4
				c-0.3-0.6-0.1-1.3,0.4-1.6l9.1-5.5c0.2-0.1,0.4-0.2,0.6-0.2v0c0.4,0,0.8,0.2,1,0.5C57,56.1,56.8,56.8,56.3,57.2z"/>
		</g>
	</g>
	<g>
		<g>
			<rect x="50.2" y="56.7" transform="matrix(0.8578 -0.514 0.514 0.8578 -22.9797 34.6698)" class="st0" width="2" height="4.3"/>
		</g>
	</g>
	<g>
		<g>
			<path class="st0" d="M39.1,66.1c-0.6-0.6-1.3-0.9-2.1-0.9H27c-0.8,0-1.5,0.3-2.1,0.9c-1.2,1.2-1.2,3.1,0,4.2
				c0.6,0.6,1.3,0.9,2.1,0.9l10,0.1c0.8,0,1.6-0.3,2.2-0.9C40.3,69.2,40.3,67.3,39.1,66.1z M37,69.2H27c-0.3,0-0.5-0.1-0.7-0.3
				c-0.2-0.2-0.3-0.4-0.3-0.7c0-0.6,0.4-1,1-1h10c0.3,0,0.5,0.1,0.7,0.3c0.2,0.2,0.3,0.4,0.3,0.7C38,68.8,37.5,69.2,37,69.2z"/>
		</g>
	</g>
	<g>
		<g>
			<rect x="30" y="67.3" transform="matrix(5.899897e-03 -1 1 5.899897e-03 -36.4779 99.8325)" class="st0" width="4" height="2"/>
		</g>
	</g>
	<g>
		<g>
			<path class="st0" d="M54.8,60.3c-3,0-5.5,2.5-5.5,5.5c0,3,2.5,5.5,5.5,5.5c0,0,0,0,0,0c3,0,5.5-2.4,5.5-5.5c0,0,0,0,0,0
				C60.2,62.7,57.8,60.3,54.8,60.3z M54.8,69.2c-1.9,0-3.5-1.6-3.5-3.5c0-1.9,1.6-3.5,3.5-3.5s3.5,1.6,3.5,3.5
				C58.2,67.6,56.7,69.2,54.8,69.2z"/>
		</g>
	</g>
	<g>
		<g>
			<path class="st0" d="M57.5,60.2h-3v2h3c1.9,0,3.5,1.6,3.5,3.5c0,1.9-1.6,3.5-3.5,3.5h-2.8v2h2.8c3,0,5.5-2.5,5.5-5.5
				C63,62.7,60.6,60.2,57.5,60.2z"/>
		</g>
	</g>
	<g>
		<g>
			<rect x="50.3" y="64.7" class="st0" width="9" height="2"/>
		</g>
	</g>
	<g>
		<g>
			<path class="st0" d="M44.2,63.5c-2.3,0-6.3,0.3-6.3,2.2c0,1.9,3.9,2.2,6.3,2.2c2.3,0,6.3-0.3,6.3-2.2
				C50.5,63.7,46.6,63.5,44.2,63.5z M41.6,65.6c1.8-0.2,3.5-0.2,5.3,0C45.1,65.9,43.4,65.9,41.6,65.6z"/>
		</g>
	</g>
	<g>
		<g>
			<path class="st0" d="M48.5,65.6v3c-1.4,0.4-2.8,0.6-4.3,0.5c-1.4,0.1-2.9-0.1-4.3-0.5v-3h-2V69c0,1.9,3.9,2.2,6.3,2.2
				c2.3,0,6.3-0.3,6.3-2.2v-3.4H48.5z"/>
		</g>
	</g>
	<g>
		<g>
			<path class="st0" d="M45,21.2H23c-2.8,0-5,2.2-5,5v44c0,0.6,0.4,1,1,1h8.3v-2H20v-43c0-1.7,1.3-3,3-3h22c1.7,0,3,1.3,3,3v32h2
				v-32C50,23.5,47.7,21.2,45,21.2z"/>
		</g>
	</g>
	<g>
		<g>
			<path class="st0" d="M42,11.2H26c-1.7,0-3,1.3-3,3v8c0,0.6,0.4,1,1,1h20c0.6,0,1-0.4,1-1v-8C45,12.6,43.6,11.2,42,11.2z M43,21.2
				H25v-7c0-0.6,0.4-1,1-1h16c0.6,0,1,0.4,1,1V21.2z"/>
		</g>
	</g>
	<g>
		<g>
			<rect x="19" y="35.2" class="st0" width="30" height="2"/>
		</g>
	</g>
	<g>
		<g>
			<rect x="19" y="51.2" class="st0" width="30" height="2"/>
		</g>
	</g>
	<g>
		<g>
			<rect x="29" y="43.2" class="st1" width="8" height="2"/>
		</g>
	</g>
	<g>
		<g>
			<rect x="32" y="40.2" class="st1" width="2" height="8"/>
		</g>
	</g>
	<g>
		<g>
			<rect x="38" y="16.2" class="st1" width="2" height="3"/>
		</g>
	</g>
	<g>
		<g>
			<rect x="33" y="16.2" class="st1" width="2" height="3"/>
		</g>
	</g>
	<g>
		<g>
			<rect x="28" y="16.2" class="st1" width="2" height="3"/>
		</g>
	</g>
	<g>
		<g>
			<path class="st0" d="M43,54.2h-5c-0.6,0-1,0.4-1,1v10c0,0.6,0.4,1,1,1h5c0.6,0,1-0.4,1-1v-10C44,54.7,43.5,54.2,43,54.2z
				 M42,64.2h-3v-8h3V64.2z"/>
		</g>
	</g>
	<g>
		<g>
			<path class="st0" d="M9.5,63.2C7,63.2,3,63.5,3,65.5s4.1,2.2,6.5,2.2s6.5-0.3,6.5-2.2C16,63.5,11.9,63.2,9.5,63.2z M9.5,65.7
				c-1,0-2.1-0.1-3.1-0.2c1-0.2,2.1-0.2,3.1-0.2c1,0,2.1,0.1,3.1,0.2C11.6,65.6,10.5,65.7,9.5,65.7z"/>
		</g>
	</g>
	<g>
		<g>
			<path class="st0" d="M14,65.5v3.2c-1.5,0.4-3,0.6-4.5,0.6c-1.5,0.1-3-0.1-4.5-0.6v-3.2H3V69c0,1.9,4.1,2.2,6.5,2.2S16,70.9,16,69
				v-3.5H14z"/>
		</g>
	</g>
</g>
</svg>
