<?xml version="1.0" encoding="utf-8"?>
<!-- Generator: Adobe Illustrator 21.1.0, SVG Export Plug-In . SVG Version: 6.00 Build 0)  -->
<svg version="1.1" id="Layer_1" xmlns="http://www.w3.org/2000/svg" xmlns:xlink="http://www.w3.org/1999/xlink" x="0px" y="0px"
	 viewBox="0 0 66 82.5" style="enable-background:new 0 0 66 82.5;" xml:space="preserve">
<style type="text/css">
	.st0{fill:#FFFFFF;}
	.st1{fill:#F99D1C;}
</style>
<g>
	<g>
		<g>
			<path class="st0" d="M50.1,26c-0.3,0-0.6,0.2-0.8,0.5l-0.9,1.8l-2.1-6.4c-0.1-0.4-0.5-0.6-0.8-0.6c-0.4,0-0.8,0.2-1,0.5l-3.7,7.4
				l-2.2-7.2c-0.1-0.4-0.4-0.6-0.8-0.7c-0.4-0.1-0.8,0.1-1,0.5L34.3,26h-5.2v1.9h5.7c0.3,0,0.6-0.2,0.8-0.5l1.7-2.9l2.2,7.5
				c0.1,0.4,0.4,0.6,0.8,0.7h0.1c0.3,0,0.7-0.2,0.8-0.5l3.7-7.5l2.1,6.4c0.1,0.4,0.5,0.6,0.8,0.6c0.4,0,0.8-0.2,1-0.5l1.7-3.3h4.2
				V26L50.1,26z"/>
		</g>
	</g>
	<g>
		<g>
			<path class="st0" d="M27.2,48c-0.3,0-0.6,0.1-0.8,0.4l-1.2-3.6c-0.1-0.4-0.5-0.6-0.9-0.6c-0.4,0-0.7,0.2-0.8,0.6l-1.9,4.4
				l-1.1-3.3c-0.1-0.3-0.3-0.5-0.6-0.6c-0.5-0.2-1,0.1-1.2,0.6L18,48h-3.1v1.9h3.8c0.4,0,0.8-0.3,0.9-0.6l0-0.2l1,3
				c0.1,0.4,0.5,0.6,0.9,0.6c0.4,0,0.7-0.3,0.8-0.6l1.9-4.4l1.1,3.3c0.1,0.4,0.5,0.6,0.8,0.6c0.4,0,0.8-0.2,1-0.5l0.7-1.4h2.3V48
				H27.2L27.2,48z"/>
		</g>
	</g>
	<g>
		<g>
			<path class="st1" d="M58.8,16.6c-4.2-4.9-11.6-5.4-16.5-1.2c-2.1-1.8-4.8-2.8-7.6-2.8c-3.1,0-6,1.2-8.2,3.4
				C22,20.6,22,28,26.5,32.6l1.8,1.8l1.4-1.4l-1.8-1.8c-0.2-0.2-0.5-0.5-0.7-0.7c-2.8-3.9-2.8-9.7,1.2-13.3s9.9-3.3,13.3,0.2
				c0.2,0.2,0.4,0.3,0.7,0.3c0.3,0,0.5-0.1,0.7-0.3c0.2-0.2,0.5-0.5,0.7-0.7c4-3.2,9.8-3,13.4,1s3.7,9.8-0.3,13.4L42.4,45.7l-2-2
				L39,45l2.7,2.7c0.2,0.2,0.4,0.3,0.7,0.3c0.3,0,0.5-0.1,0.7-0.3l15.1-15.1C62.6,28.2,62.8,21.2,58.8,16.6z"/>
		</g>
	</g>
	<g>
		<g>
			<path class="st1" d="M35.8,36.5H9.1c-0.5,0-1,0.4-1,1v22c0,0.5,0.4,1,1,1h26.7c0.5,0,1-0.4,1-1v-22
				C36.8,36.9,36.4,36.5,35.8,36.5z M34.9,58.5H10.1v-20h24.8V58.5z"/>
		</g>
	</g>
	<g>
		<g>
			<path class="st1" d="M39.6,32.7H5.3c-0.5,0-1,0.4-1,1V69c0,0.5,0.4,1,1,1h34.4c0.5,0,1-0.4,1-1V33.7
				C40.6,33.1,40.2,32.7,39.6,32.7z M38.7,68H6.2V34.6h32.5V68z"/>
		</g>
	</g>
</g>
</svg>
