<?xml version="1.0" encoding="utf-8"?>
<!-- Generator: Adobe Illustrator 21.1.0, SVG Export Plug-In . SVG Version: 6.00 Build 0)  -->
<svg version="1.1" id="Layer_1" xmlns="http://www.w3.org/2000/svg" xmlns:xlink="http://www.w3.org/1999/xlink" x="0px" y="0px"
	 viewBox="0 0 66 82.5" style="enable-background:new 0 0 66 82.5;" xml:space="preserve">
<style type="text/css">
	.st0{clip-path:url(#SVGID_2_);fill:#F99D1C;}
	.st1{clip-path:url(#SVGID_2_);fill:#FFFFFF;}
</style>
<g>
	<g>
		<defs>
			<rect id="SVGID_1_" x="5.3" y="9.2" width="55.5" height="64"/>
		</defs>
		<clipPath id="SVGID_2_">
			<use xlink:href="#SVGID_1_"  style="overflow:visible;"/>
		</clipPath>
		<path class="st0" d="M49,69c0.3,0,0.5-0.1,0.8-0.3l6.4-6.4c0.2-0.2,0.3-0.5,0.3-0.8V18.9c0-0.6-0.5-1.1-1.1-1.1H49
			c-0.6,0-1.1,0.5-1.1,1.1c0,0.6,0.5,1.1,1.1,1.1h5.3v41.2l-6.1,6.1c-0.4,0.4-0.4,1.1,0,1.5C48.5,68.9,48.7,69,49,69"/>
		<path class="st0" d="M17,19.9c0.6,0,1.1-0.5,1.1-1.1s-0.5-1.1-1.1-1.1h-6.4c-0.6,0-1.1,0.5-1.1,1.1v45.9c0,2.4,1.9,4.3,4.3,4.3
			h30.9c0.6,0,1.1-0.5,1.1-1.1v-6.4c0-0.5,0.5-1.1,1.1-1.1h4.3c0.6,0,1.1-0.5,1.1-1.1c0-0.6-0.5-1.1-1.1-1.1h-4.3
			c-1.7,0-3.2,1.5-3.2,3.2v5.3H13.8c-1.2,0-2.1-1-2.1-2.1V19.9H17z"/>
		<path class="st0" d="M33,13.5c-1.2,0-2.1,1-2.1,2.1c0,1.2,1,2.1,2.1,2.1c1.2,0,2.1-1,2.1-2.1C35.1,14.5,34.2,13.5,33,13.5"/>
		<path class="st0" d="M55.4,13.5H49c-0.6,0-1.1,0.5-1.1,1.1s0.5,1.1,1.1,1.1h6.4c1.6,0,3.2,1.6,3.2,3.2v49.1c0,1.6-1.6,3.2-3.2,3.2
			H10.6c-1.6,0-3.2-1.6-3.2-3.2V18.8c0-1.6,1.6-3.2,3.2-3.2H17c0.6,0,1.1-0.5,1.1-1.1c0-0.6-0.5-1.1-1.1-1.1h-6.4
			c-2.7,0-5.3,2.6-5.3,5.3v49.1c0,2.7,2.6,5.3,5.3,5.3h44.8c2.7,0,5.3-2.6,5.3-5.3V18.8C60.7,16.1,58.1,13.5,55.4,13.5"/>
		<path class="st1" d="M13.8,44.4c0,0.6,0.5,1.1,1.1,1.1h4.3c0.5,0,0.9-0.3,1-0.7l3.3-9.8l7.5,22.6c0.1,0.4,0.5,0.7,1,0.7h0
			c0.4,0,0.8-0.3,1-0.7l6.6-17l2.1,4.2c0.2,0.4,0.6,0.6,1,0.6H46c0.4,1.2,1.6,2.1,3,2.1c1.8,0,3.2-1.4,3.2-3.2
			c0-1.8-1.4-3.2-3.2-3.2c-1.4,0-2.6,0.9-3,2.1h-2.7l-2.9-5.8c-0.2-0.4-0.6-0.6-1-0.6c-0.4,0-0.8,0.3-0.9,0.7L32,54.1l-7.6-22.8
			c-0.1-0.4-0.6-0.7-1-0.7c-0.5,0-0.9,0.3-1,0.7l-4,12.1h-3.5C14.3,43.4,13.8,43.9,13.8,44.4 M49,43.4c0.6,0,1.1,0.5,1.1,1.1
			c0,0.6-0.5,1.1-1.1,1.1c-0.6,0-1.1-0.5-1.1-1.1C47.9,43.9,48.4,43.4,49,43.4"/>
		<path class="st0" d="M21.3,22.1h23.5c0.6,0,1.1-0.5,1.1-1.1v-6.4c0-0.6-0.5-1.1-1.1-1.1H39c-0.9-2.5-3.3-4.3-6-4.3s-5.1,1.7-6,4.3
			h-5.7c-0.6,0-1.1,0.5-1.1,1.1V21C20.2,21.6,20.7,22.1,21.3,22.1 M22.3,15.7h5.4c0.5,0,0.9-0.4,1-0.9c0.4-2,2.2-3.4,4.2-3.4
			c2,0,3.8,1.4,4.2,3.4c0.1,0.5,0.5,0.9,1,0.9h5.4v4.3H22.3V15.7z"/>
	</g>
</g>
</svg>
