<?xml version="1.0" encoding="utf-8"?>
<!-- Generator: Adobe Illustrator 22.1.0, SVG Export Plug-In . SVG Version: 6.00 Build 0)  -->
<svg version="1.1" id="Layer_1" xmlns="http://www.w3.org/2000/svg" xmlns:xlink="http://www.w3.org/1999/xlink" x="0px" y="0px"
	 viewBox="0 0 102.5 81.7" style="enable-background:new 0 0 102.5 81.7;" xml:space="preserve">
<style type="text/css">
	.st0{fill:#343E48;}
	.st1{fill:#F04B24;}
</style>
<path class="st0" d="M95.4,38.8c1.5,0,2.7-1.2,2.7-2.7c0-0.7-0.3-1.4-0.8-1.9L67.7,4.7c0,0,0,0,0,0c-0.5-0.5-1.2-0.8-1.9-0.8
	c-1.5,0-2.7,1.2-2.7,2.7c0,0.7,0.3,1.4,0.8,1.9L93.5,38C94,38.6,94.7,38.8,95.4,38.8L95.4,38.8z M97.3,8.5c0.5-0.5,0.8-1.2,0.8-1.9
	c0-1.5-1.2-2.7-2.7-2.7c-0.7,0-1.4,0.3-1.9,0.8c-0.5,0.5-0.8,1.2-0.8,1.9c0,1.5,1.2,2.7,2.7,2.7C96.1,9.3,96.8,9,97.3,8.5
	 M90.7,58.3c0-0.7-0.3-1.4-0.8-1.9L45.6,12.1c0,0,0,0,0,0c-0.5-0.5-1.2-0.8-1.9-0.8c-1.5,0-2.7,1.2-2.7,2.7c0,0.7,0.3,1.4,0.8,1.9
	c0,0,0,0,0,0l44.3,44.3c0,0,0,0,0,0c0.5,0.5,1.2,0.8,1.9,0.8C89.5,61,90.7,59.8,90.7,58.3 M98.1,21.4c0-0.7-0.3-1.4-0.8-1.9
	c0,0,0,0,0,0L82.5,4.7c0,0,0,0,0,0c-0.5-0.5-1.2-0.7-1.9-0.7c-1.5,0-2.7,1.2-2.7,2.7c0,0.7,0.3,1.4,0.8,1.9c0,0,0,0,0,0l14.8,14.8
	c0.5,0.5,1.2,0.8,1.9,0.8C96.9,24.1,98.1,22.8,98.1,21.4 M75.9,58.3c0-0.7-0.3-1.4-0.8-1.9c0,0-29.5-29.6-29.6-29.6
	c-0.5-0.5-1.2-0.8-1.9-0.8c-1.5,0-2.7,1.2-2.7,2.7c0,0.7,0.3,1.4,0.8,1.9c0,0,0,0,0,0l29.6,29.6c0,0,0,0,0,0
	c0.5,0.5,1.2,0.7,1.9,0.7C74.7,61,75.9,59.8,75.9,58.3 M61.1,58.3c0-0.7-0.3-1.4-0.8-1.9c0,0,0,0,0,0L45.6,41.6c0,0,0,0,0,0
	c-0.5-0.5-1.2-0.8-1.9-0.8c-1.5,0-2.7,1.2-2.7,2.7c0,0.7,0.3,1.4,0.7,1.9c0,0,0,0,0,0l14.8,14.8c0,0,0,0,0,0
	c0.5,0.5,1.2,0.8,1.9,0.8C59.9,61,61.1,59.8,61.1,58.3 M46.3,58.3c0-1.5-1.2-2.7-2.7-2.7c-1.5,0-2.7,1.2-2.7,2.7
	c0,1.5,1.2,2.7,2.7,2.7C45.1,61,46.3,59.8,46.3,58.3 M21.5,38.8c0.7,0,1.4-0.3,1.9-0.8c0,0,14.8-14.8,14.8-14.8c0,0,0,0,0,0
	c1-1,1-2.7,0-3.8c-0.5-0.5-1.2-0.8-1.9-0.8c-0.7,0-1.4,0.3-1.9,0.8c0,0,0,0,0,0c0,0-14.7,14.7-14.8,14.8c-1,1-1,2.7,0,3.8
	C20.1,38.6,20.8,38.8,21.5,38.8 M38.9,36.1c0-1.5-1.2-2.7-2.7-2.7c-1.5,0-2.7,1.2-2.7,2.7c0,1.5,1.2,2.7,2.7,2.7
	C37.7,38.8,38.9,37.6,38.9,36.1 M9.4,6.6c0-1.5-1.2-2.7-2.7-2.7C5.2,3.9,4,5.1,4,6.6s1.2,2.7,2.7,2.7C8.2,9.3,9.4,8.1,9.4,6.6
	 M6.7,24.1c0.7,0,1.4-0.3,1.9-0.8c0,0,0,0,0,0L23.4,8.5c1-1,1-2.8,0-3.8c-0.5-0.5-1.2-0.8-1.9-0.8c-0.7,0-1.4,0.3-1.9,0.8
	c0,0-14.8,14.8-14.8,14.8c0,0,0,0,0,0C4.3,20,4,20.7,4,21.4C4,22.8,5.2,24.1,6.7,24.1 M21.5,46.2c-1.5,0-2.7-1.2-2.7-2.7
	c0-1.5,1.2-2.7,2.7-2.7c1.5,0,2.7,1.2,2.7,2.7c0,0.7-0.3,1.4-0.8,1.9C22.9,45.9,22.2,46.2,21.5,46.2L21.5,46.2z M6.7,61
	C5.2,61,4,59.8,4,58.3c0-1.5,1.2-2.7,2.7-2.7c1.5,0,2.7,1.2,2.7,2.7c0,0.7-0.3,1.4-0.8,1.9C8.1,60.7,7.4,61,6.7,61"/>
<path class="st1" d="M97.3,52.8c0.5-0.5,0.8-1.2,0.8-1.9c0-0.7-0.3-1.4-0.8-1.9c0,0-44.3-44.3-44.3-44.3c0,0,0,0,0,0
	c-0.5-0.5-1.2-0.8-1.9-0.8c-0.7,0-1.4,0.3-1.9,0.8c-1,1-1,2.7,0,3.8c0,0,0,0,0,0l44.3,44.3c0.5,0.5,1.2,0.8,1.9,0.8
	C96.1,53.6,96.8,53.3,97.3,52.8 M6.7,38.8c0.7,0,1.4-0.3,1.9-0.8L38.2,8.5c1-1,1-2.7,0-3.8c-0.5-0.5-1.2-0.8-1.9-0.8
	c-0.7,0-1.4,0.3-1.9,0.8L4.8,34.2C4.3,34.8,4,35.4,4,36.1s0.3,1.4,0.8,1.9C5.3,38.6,6,38.8,6.7,38.8 M21.5,61c0.7,0,1.4-0.3,1.9-0.8
	c0.5-0.5,0.8-1.2,0.8-1.9c0-0.7-0.3-1.4-0.8-1.9L8.6,41.6c-0.5-0.5-1.2-0.8-1.9-0.8c-0.7,0-1.4,0.3-1.9,0.8C4.3,42.1,4,42.8,4,43.5
	s0.3,1.4,0.8,1.9l14.8,14.8C20.1,60.7,20.8,61,21.5,61 M38.2,45.4c0.5-0.5,0.8-1.2,0.8-1.9c0-0.7-0.3-1.4-0.8-1.9
	c-0.5-0.5-1.2-0.8-1.9-0.8c-0.7,0-1.4,0.3-1.9,0.8c-0.5,0.5-0.8,1.2-0.8,1.9c0,1.5,1.2,2.7,2.7,2.7C37,46.2,37.7,45.9,38.2,45.4
	 M28.9,61c0.7,0,1.4-0.3,1.9-0.8l7.4-7.4c1-1,1-2.7,0-3.8c-0.5-0.5-1.2-0.8-1.9-0.8c-0.7,0-1.4,0.3-1.9,0.8L27,56.4
	c-0.5,0.5-0.8,1.2-0.8,1.9c0,0.7,0.3,1.4,0.8,1.9C27.5,60.7,28.2,61,28.9,61 M28.9,46.2c-1.5,0-2.7-1.2-2.7-2.7
	c0-1.5,1.2-2.7,2.7-2.7c1.5,0,2.7,1.2,2.7,2.7C31.6,45,30.4,46.2,28.9,46.2L28.9,46.2z"/>
<path class="st0" d="M5.4,74.9c-0.3-0.3-0.9-0.1-1.2,0.3c-0.3,0.5-0.2,1,0.1,1.3l0,0c1,0.7,2.2,1.1,3.6,1.1c2.3,0,4-1.2,4-3.3
	c0-4.4-5.7-2.3-5.7-4.8c0-0.8,0.6-1.1,1.6-1.1c0.9,0,1.6,0.3,2.3,0.7c0.4,0.2,0.9,0,1.2-0.4c0.3-0.5,0.2-1-0.2-1.2
	c-0.9-0.6-2.2-0.9-3.3-0.9c-2.1,0-3.7,1.1-3.7,3c0,4.4,5.7,2.2,5.7,4.8c0,0.9-0.8,1.6-1.9,1.6C7,75.9,6.1,75.4,5.4,74.9"/>
<path class="st0" d="M19.2,72.1c0,0.5,0.4,1,0.8,1h1.6v1.8c-0.6,0.5-1.4,0.8-2.3,0.8c-2,0-3.6-1.6-3.6-3.6c0-2,1.6-3.6,3.6-3.6
	c0.9,0,1.8,0.3,2.4,0.9c0.3,0.3,0.9,0.3,1.3-0.1c0.4-0.4,0.4-0.9,0.1-1.3c-1.1-0.9-2.4-1.5-3.8-1.5c-3.1,0-5.7,2.4-5.7,5.6
	s2.6,5.6,5.7,5.6c1.5,0,3-0.6,4-1.7c0.1-0.1,0.2-0.3,0.2-0.6V72c0-0.5-0.5-0.9-1-0.9H20C19.6,71.1,19.2,71.5,19.2,72.1"/>
<path class="st0" d="M26.5,77.4c-0.3,0-0.5-0.2-0.5-0.5v-9.9c0-0.3,0.2-0.5,0.5-0.5c0.3,0,0.5,0.2,0.5,0.5v9.9
	C27,77.1,26.8,77.4,26.5,77.4"/>
<path class="st0" d="M37.2,77.4c-0.2,0-0.3-0.1-0.4-0.2l-6.3-8.6v8.3c0,0.3-0.2,0.5-0.5,0.5c-0.3,0-0.5-0.2-0.5-0.5v-9.9
	c0-0.3,0.2-0.5,0.5-0.5c0.2,0,0.3,0.1,0.4,0.2l6.3,8.6v-8.3c0-0.3,0.2-0.5,0.5-0.5c0.3,0,0.5,0.2,0.5,0.5v9.9
	C37.8,77.1,37.5,77.4,37.2,77.4"/>
<path class="st0" d="M48,77.4c-0.2,0-0.3-0.1-0.4-0.2l-6.3-8.6v8.3c0,0.3-0.2,0.5-0.5,0.5c-0.3,0-0.5-0.2-0.5-0.5v-9.9
	c0-0.3,0.2-0.5,0.5-0.5c0.2,0,0.3,0.1,0.4,0.2l6.3,8.6v-8.3c0-0.3,0.2-0.5,0.5-0.5c0.3,0,0.5,0.2,0.5,0.5v9.9
	C48.6,77.1,48.3,77.4,48,77.4"/>
<path class="st0" d="M60.5,71.9c0,2.5-2,4.5-4.5,4.5c-2.5,0-4.5-2-4.5-4.5c0-2.5,2-4.5,4.5-4.5C58.5,67.3,60.5,69.4,60.5,71.9
	 M61.6,71.9c0-3.1-2.5-5.6-5.6-5.6c-3.1,0-5.6,2.5-5.6,5.6c0,3.1,2.5,5.6,5.6,5.6C59.1,77.5,61.6,75,61.6,71.9"/>
<path class="st0" d="M66.9,77.4c-0.2,0-0.4-0.1-0.5-0.3l-4.1-9.9c0-0.1,0-0.1,0-0.2c0-0.3,0.2-0.5,0.5-0.5c0.2,0,0.4,0.1,0.5,0.3
	l3.6,8.7l3.6-8.7c0.1-0.2,0.3-0.3,0.5-0.3c0.3,0,0.5,0.2,0.5,0.5c0,0.1,0,0.2,0,0.2l-4.1,9.9C67.3,77.2,67.1,77.4,66.9,77.4"/>
<path class="st0" d="M71.9,77.4c-0.3,0-0.5-0.2-0.5-0.5c0-0.1,0-0.2,0-0.2l4.1-9.9c0.1-0.2,0.3-0.3,0.5-0.3c0.2,0,0.4,0.1,0.5,0.3
	l2.4,5.7c0,0.1,0,0.1,0,0.2c0,0.3-0.2,0.5-0.5,0.5c-0.2,0-0.4-0.1-0.5-0.3l-1.9-4.5l-3.6,8.7C72.3,77.3,72.2,77.4,71.9,77.4
	 M80.2,77.4c-0.2,0-0.4-0.1-0.5-0.3l-0.9-2.2h-4c-0.3,0-0.5-0.2-0.5-0.5c0-0.3,0.2-0.5,0.5-0.5h4.3c0.2,0,0.4,0.1,0.5,0.3l1.1,2.5
	c0,0.1,0,0.1,0,0.2C80.7,77.2,80.5,77.4,80.2,77.4"/>
<path class="st0" d="M81,67.6c-0.3,0-0.5-0.2-0.5-0.5s0.2-0.5,0.5-0.5h1.8c0.3,0,0.5,0.2,0.5,0.5s-0.2,0.5-0.5,0.5H81z M84.6,77.4
	c-0.3,0-0.5-0.2-0.5-0.5V67c0-0.3,0.2-0.5,0.5-0.5h3.6c0.3,0,0.5,0.2,0.5,0.5s-0.2,0.5-0.5,0.5h-3.1v9.2
	C85.2,77.1,84.9,77.4,84.6,77.4"/>
<path class="st0" d="M90.8,70.5c-0.3,0-0.5-0.2-0.5-0.5v-2.9c0-0.3,0.2-0.5,0.5-0.5h6.8c0.3,0,0.5,0.2,0.5,0.5s-0.2,0.5-0.5,0.5
	h-6.2v2.4C91.3,70.2,91.1,70.5,90.8,70.5 M90.8,77.3c-0.3,0-0.5-0.2-0.5-0.5v-4.8c0-0.3,0.2-0.5,0.5-0.5h5.8c0.3,0,0.5,0.2,0.5,0.5
	c0,0.3-0.2,0.5-0.5,0.5h-5.3v3.7h6.2c0.3,0,0.5,0.3,0.5,0.5c0,0.3-0.2,0.5-0.5,0.5H90.8z"/>
</svg>
