<svg width="300px" viewBox="0 0 530 54" version="1.1" xmlns="http://www.w3.org/2000/svg" xmlns:xlink="http://www.w3.org/1999/xlink">
    <g id="Page-1" stroke="none" stroke-width="1" fill="none" fill-rule="evenodd">
        <g id="healtx-fine-01" transform="translate(-131.000000, -244.000000)">
            <polyline id="Fill-1" fill="#EC952D" points="423.287 294.867 389.494 261.074 353.418 297.15 373.513 297.15 389.494 281.168 405.477 297.15 425.57 297.15 423.287 294.867"></polyline>
            <polyline id="Fill-2" fill="#0067A5" points="392.114 258.213 392.234 258.334 394.519 260.617 402.161 268.26 425.57 244.85 405.477 244.85 392.114 258.213"></polyline>
            <polyline id="Fill-3" fill="#0067A5" points="353.418 244.85 376.828 268.26 386.755 258.334 386.875 258.213 373.513 244.85 353.418 244.85"></polyline>
            <polyline id="Fill-4" fill="#777776" points="153.194 269.41 137.084 269.41 137.084 255.374 131.152 255.374 131.152 289.138 137.084 289.138 137.084 274.909 153.194 274.909 153.194 289.138 159.127 289.138 159.127 255.374 153.194 255.374 153.194 269.41"></polyline>
            <polyline id="Fill-5" fill="#777776" points="255.014 255.374 249.08 255.374 249.08 289.138 272.764 289.138 272.764 283.735 255.014 283.735 255.014 255.374"></polyline>
            <polyline id="Fill-6" fill="#777776" points="275.319 260.872 286.027 260.872 286.027 289.138 292.008 289.138 292.008 260.872 302.716 260.872 302.716 255.374 275.319 255.374 275.319 260.872"></polyline>
            <polyline id="Fill-7" fill="#777776" points="334.646 269.41 318.535 269.41 318.535 255.374 312.603 255.374 312.603 289.138 318.535 289.138 318.535 274.909 334.646 274.909 334.646 289.138 340.579 289.138 340.579 255.374 334.646 255.374 334.646 269.41"></polyline>
            <polyline id="Fill-8" fill="#777776" points="219.322 255.132 204.465 289.138 210.543 289.138 221.975 262.223 233.406 289.138 239.676 289.138 224.82 255.132 219.322 255.132"></polyline>
            <path d="M449.386,284.266 C442.922,284.266 438.244,278.864 438.244,272.207 C438.244,265.551 442.922,260.246 449.386,260.246 C453.244,260.246 456.139,261.934 458.84,264.442 L462.65,260.052 C459.418,256.965 455.656,254.795 449.434,254.795 C439.208,254.795 432.021,262.657 432.021,272.304 C432.021,282.047 439.354,289.716 449.193,289.716 C455.512,289.716 459.371,287.401 462.891,283.735 L459.081,279.877 C456.187,282.578 453.534,284.266 449.386,284.266" id="Fill-9" fill="#777776"></path>
            <path d="M524.976,272.931 L518.078,272.931 L518.078,260.776 L524.976,260.776 C529.413,260.776 532.259,262.85 532.259,266.854 C532.259,270.471 529.461,272.931 524.976,272.931 Z M525.458,255.374 L512.145,255.374 L512.145,289.138 L518.078,289.138 L518.078,278.285 L524.782,278.285 C532.211,278.285 538.288,274.33 538.288,266.709 C538.288,259.811 533.32,255.374 525.458,255.374 Z" id="Fill-10" fill="#777776"></path>
            <polygon id="Fill-11" fill="#777776" points="547.332 289.138 553.265 289.138 553.265 255.374 547.332 255.374"></polygon>
            <polyline id="Fill-12" fill="#777776" points="562.501 260.872 573.209 260.872 573.209 289.138 579.189 289.138 579.189 260.872 589.898 260.872 589.898 255.374 562.501 255.374 562.501 260.872"></polyline>
            <polyline id="Fill-13" fill="#777776" points="643.098 283.735 643.098 255.374 637.165 255.374 637.165 289.138 660.848 289.138 660.848 283.735 643.098 283.735"></polyline>
            <polyline id="Fill-14" fill="#777776" points="483.704 255.132 468.848 289.138 474.926 289.138 486.356 262.223 497.788 289.138 504.059 289.138 489.203 255.132 483.704 255.132"></polyline>
            <polyline id="Fill-15" fill="#777776" points="607.406 255.132 592.55 289.138 598.627 289.138 610.059 262.223 621.49 289.138 627.761 289.138 612.904 255.132 607.406 255.132"></polyline>
            <polyline id="Fill-16" fill="#777776" points="171.426 255.374 171.426 289.138 196.459 289.138 196.459 283.832 177.358 283.832 177.358 274.788 193.399 274.788 193.399 269.482 177.358 269.482 177.358 260.68 196.459 260.68 196.459 255.374 171.426 255.374"></polyline>
        </g>
    </g>
</svg>